<svg width="328" height="610" viewBox="0 0 328 610" fill="none" xmlns="http://www.w3.org/2000/svg">
<path d="M-35.5966 607.546C-33.9079 608.353 -32.1457 609.086 -30.3835 609.82C-31.9254 599.772 -25.6109 590.091 -22.4537 581.144C-24.1424 579.384 -23.7753 583.711 -25.5375 582.17C-26.1249 579.897 -25.4641 579.53 -26.9326 577.917C-25.6109 575.57 -24.2893 579.457 -22.0131 578.357C-22.8208 576.523 -24.2893 576.083 -25.2438 574.69C-33.9813 542.347 -39.5615 504.797 -37.7259 476.195C-34.0547 507.511 -34.275 536.553 -22.3803 568.969C-20.6181 569.483 -18.8559 568.456 -19.5167 571.39C-15.2581 570.289 -17.5343 566.916 -13.5694 566.696C-15.1113 564.276 -9.97158 562.002 -10.1184 558.775C-12.1009 557.602 -11.2198 560.975 -13.2022 559.802C-14.891 557.602 -12.5414 557.455 -13.2022 555.695C-11.0729 556.942 -9.09049 558.335 -6.66749 558.922C-5.7864 556.722 -10.1918 556.575 -10.559 553.421C-8.79679 554.741 -5.78639 553.421 -4.02422 554.668C-4.09764 552.835 -7.54858 550.048 -4.24449 547.921C-5.34586 546.307 -6.08009 548.948 -7.3283 548.948C-7.25488 545.134 -3.51025 546.821 -1.60121 547.701C-0.206154 545.647 -5.56612 544.841 -4.02422 542.42C-1.23409 540.954 -0.499855 543.594 0.895203 544.841C3.17136 543.154 -1.08725 541.907 -1.52779 539.56C-0.793556 538.9 -0.353012 538.093 -0.279587 537.14C1.40916 537.14 2.36369 538.607 3.83217 539.193C4.63984 538.093 1.40918 536.627 0.968636 534.72C1.55602 533.84 3.02451 533.4 2.80424 532.079C4.78669 532.446 3.97901 535.16 7.06283 534.72C8.23762 533.693 6.69572 529.513 10.2935 530.246C9.92638 528.486 10.5138 526.066 11.5417 523.719C12.276 523.939 12.6431 524.892 13.8179 524.305C14.5521 523.132 11.3949 522.325 13.2305 520.418C14.9927 519.245 14.7724 522.179 16.3143 521.445C15.2863 518.732 14.5521 518.658 15.2863 516.385C17.1954 514.185 18.0765 516.678 20.2058 516.825C19.1778 514.111 16.4611 514.771 15.7269 511.544C17.7828 511.398 16.3143 509.491 18.3702 509.271C19.4715 510.444 20.6463 511.471 22.0414 512.131C23.5099 510.078 19.8386 509.858 19.7652 507.437C20.4995 507.291 20.7932 506.924 20.7932 506.411C22.7022 505.237 22.5553 508.317 24.0973 508.024C24.0973 506.411 21.7477 502.597 25.3455 501.497C26.2265 502.084 26.6671 503.55 27.6216 504.137C28.8698 501.717 24.3175 499.223 26.5937 497.023C28.723 495.776 28.723 498.93 30.4852 498.417C31.8068 496.73 28.0621 496.436 28.209 493.723C29.9712 491.889 30.4117 493.503 32.3208 493.723C31.4397 491.083 30.4852 491.229 31.5131 489.249C33.2753 488.809 33.8627 490.716 35.4046 490.643C34.964 488.809 34.2298 487.562 32.9816 487.416C33.569 485.435 35.6248 483.749 37.6807 485.142C37.1668 483.235 35.1109 482.135 36.0654 480.228C35.2577 478.101 34.4501 482.208 34.0095 480.228C33.4955 475.608 37.8276 480.155 39.9569 479.642C41.0582 476.635 33.7158 475.901 36.2857 472.748C38.7087 472.674 40.1771 474.435 42.3799 474.801C41.6456 473.041 39.81 468.934 44.656 469.301C42.3065 467.981 42.0127 463.214 45.4637 463.58C43.8484 461.967 43.9218 460.28 44.4357 458.52C42.5267 457.493 43.6281 459.84 41.5722 460.133C40.6911 457.126 44.5092 458.08 45.2434 456.833C45.0231 453.826 41.5722 457.346 41.5722 453.973C43.8483 453.533 45.0966 454.559 46.7119 452.946C46.565 449.426 42.4533 453.899 42.0128 451.112C41.9393 448.912 45.3903 450.526 45.684 447.812C44.4357 445.979 44.4357 447.886 42.4533 448.252C41.9393 445.172 42.8204 445.979 45.3168 444.585C47.079 445.759 45.0231 450.452 48.1804 451.112C51.2642 449.206 50.8237 449.059 54.2746 449.059C55.5228 447.739 52.439 446.639 52.2187 444.952C53.834 443.779 53.9075 443.778 55.8899 443.705C57.2115 443.192 55.3025 440.992 55.3025 439.818C56.4039 439.378 56.8444 440.112 57.9458 439.598C57.1381 437.618 57.6521 435.564 58.5332 433.291C59.5611 433.291 60.3688 433.658 61.3967 433.731C62.4981 431.897 59.0472 431.897 60.1485 430.064L63.2323 429.037C62.9386 427.937 62.0576 428.01 61.8373 426.764C63.3058 425.077 63.5995 425.224 65.0679 424.343C62.7184 421.63 65.3616 421.483 65.2882 418.843C66.3162 418.77 66.463 420.603 68.1518 419.283C69.8405 417.67 66.3896 418.183 66.5364 416.423C67.2707 414.149 69.3266 413.709 70.795 412.976C69.1063 410.556 69.6937 410.336 69.7671 407.915C71.5293 406.815 71.5293 409.235 73.218 408.135C73.1446 406.302 70.0608 403.662 72.9978 401.388C73.732 401.608 74.0991 402.562 75.2739 401.975C76.8158 400.435 73.8788 399.481 73.8788 397.721C74.8334 395.741 75.3473 398.235 77.1095 397.281C78.5046 396.914 76.669 395.008 76.669 394.054C81.9555 392.734 78.8717 387.014 84.5988 387.307C84.3051 385.84 83.7177 385.033 82.5429 385.253C83.2037 383.347 84.2317 381.366 86.8015 381.806C85.9938 379.9 85.7736 378.726 86.8015 375.719C87.5358 376.013 88.4168 375.939 89.4448 375.499C88.0497 373.959 87.756 372.639 88.6371 371.026C90.4727 370.072 90.6196 372.419 92.7489 371.026C92.3083 369.485 90.9133 369.999 90.1056 369.192C89.7385 367.945 91.5007 367.872 90.5461 366.332C92.602 364.938 92.8223 367.285 94.6579 366.332C94.6579 363.618 92.2349 365.745 92.2349 363.105C93.1894 361.198 94.5845 363.545 96.7138 362.298C96.5669 359.805 94.0705 362.078 93.8502 359.878C94.8782 357.091 96.1264 359.071 98.7696 358.264C98.9899 355.991 94.7313 357.678 96.4935 355.624C95.6858 352.544 98.2557 355.624 99.5773 354.597C100.899 352.397 95.9795 353.204 97.5214 350.49C104.203 351.004 103.836 344.33 106.699 341.323C106.479 344.99 101.339 348.804 104.276 352.324C99.1368 366.552 89.7385 378.726 86.9484 394.128C85.9939 394.641 85.7001 393.908 84.8925 394.128C90.9133 402.415 104.203 392.001 113.234 395.521C107.067 396.621 100.385 396.401 97.5214 399.408C96.1998 399.628 96.4935 396.768 94.8782 397.574C93.4831 398.381 92.7489 399.555 91.7943 400.655C90.179 401.095 90.0322 398.675 88.9308 398.235C88.1966 399.041 87.3155 399.775 87.9029 401.315C87.0218 401.388 86.8749 399.921 86.5078 399.041C78.064 409.455 71.0153 420.53 66.5364 432.924C59.8548 439.745 60.5156 450.306 54.2746 457.42C49.502 473.921 41.8659 488.956 33.7158 503.697C31.6599 509.638 28.7964 517.338 23.5099 519.978C26.5937 524.159 18.8841 527.972 23.7301 532.813C29.0167 532.96 34.1564 532.446 39.5163 531.273C40.9848 528.559 42.6736 525.919 44.3623 523.352C44.5092 523.059 44.5826 522.839 44.7294 522.545C39.81 523.572 34.8906 523.645 29.8243 522.619C43.9218 497.096 54.2746 463.214 68.5923 434.904C72.4104 427.277 78.5046 411.362 85.1128 406.962C95.0984 400.288 106.699 403.882 118.154 399.995C125.496 406.522 141.135 410.042 150.02 401.608C153.544 398.235 155.82 392.514 153.25 386.94C147.376 374.106 121.311 377.479 115.731 390.607C107.36 391.634 96.1264 393.247 89.5916 393.907C96.6403 377.919 102.221 361.125 111.031 346.017C138.933 364.132 189.889 352.397 215.147 327.608C212.21 336.849 211.476 345.137 207.437 353.277C199.654 368.899 162.796 382.613 161.547 399.188C188.053 400.801 220.434 393.174 235.853 373.079C250.978 353.277 262.579 325.848 250.684 297.466C259.275 301.719 278.732 311.474 283.358 321.888C284.166 323.721 282.697 326.728 284.166 328.415C289.305 334.429 301.127 325.555 294.959 318.001C292.683 315.214 291.508 318.734 290.701 317.414C279.687 303.406 263.607 294.019 249.877 288.885C261.625 290.205 271.684 294.972 281.963 299.299C289.085 306.927 299.585 312.647 305.238 322.108C306.634 324.455 305.752 328.708 310.158 328.635C315.298 327.168 317.5 320.274 315.077 316.827C313.609 314.701 311.994 316.021 309.571 314.554C305.606 312.207 303.55 307.293 300.98 305.166C304.651 303.846 305.165 298.566 307.515 298.199C310.819 299.959 313.242 302.16 315.151 305.166C316.546 307.367 315.298 312.794 318.749 313.454C332.626 316.314 331.671 288.372 318.161 299.373C317.28 296.439 314.417 297.392 313.242 294.899C318.308 292.112 318.235 286.832 316.693 280.818C335.856 277.004 328.954 246.348 316.472 235.347C317.647 236.007 320.07 236.3 320.951 234.54C324.035 228.38 321.686 216.645 315.444 211.878C309.35 199.851 306.413 199.411 300.98 201.097C298.41 204.178 300.906 206.891 301.567 211.072C293.344 218.992 281.008 227.646 266.691 230.873C283.285 223.173 290.7 210.925 295.693 197.43C297.235 199.044 300.98 198.604 302.228 196.624C306.12 190.536 295.987 179.022 289.599 183.203C285.561 185.843 290.407 193.03 289.599 197.504C288.571 203.518 281.376 212.318 274.694 218.112C266.617 225.153 259.495 229.48 248.188 232.413C260.083 223.319 271.316 212.612 275.942 201.391C278.439 201.391 280.641 202.124 281.449 199.557C283.652 192.517 272.565 181.589 267.131 187.31C264.635 189.95 267.498 193.983 269.554 196.697C265.589 208.945 256.338 218.626 244.223 226.913C244.37 223.099 245.838 218.919 244.443 215.325C240.478 204.911 237.468 197.87 231.961 190.243C229.318 186.576 223.591 180.856 219.92 178.655C215.514 175.942 204.06 170.148 199.508 168.461C183.721 162.741 162.061 176.602 150.093 185.623C141.796 191.93 137.097 194.57 139.667 205.424C151.121 213.712 178.141 197.357 189.669 198.237C202.959 202.638 208.833 226.84 214.192 241.068C190.403 225.3 161.254 213.272 127.405 223.759C126.157 220.019 130.562 191.343 131.737 187.823C133.132 183.716 136.95 178.435 143.926 169.268C148.404 163.327 153.397 158.34 157.362 152.547C169.183 154.087 178.875 143.159 183.061 133.772C182.84 131.058 178.875 133.038 179.977 130.691C192.312 122.257 204.574 111.476 199.728 96.2216C195.396 93.6548 191.798 89.6944 187.246 87.4942C178.582 87.1275 171.533 90.0611 166.026 97.3217C163.97 105.169 162.135 113.016 160.152 120.864C160.226 119.25 158.537 118.004 157.289 117.93C151.562 125.558 141.503 135.458 150.754 147.266C143.191 156.874 135.922 166.408 127.479 173.375C127.111 159.514 124.174 141.912 123 129.371C125.055 128.271 126.01 128.198 128.947 126.731C138.419 118.077 137.684 102.969 142.604 92.2613C143.779 89.7677 147.23 87.9343 146.275 84.9273C138.786 86.3208 133.059 95.6349 129.975 99.2286C130.048 84.7807 135.775 69.3793 139.52 50.531C142.457 35.8631 142.017 11.881 128.066 4.03364C126.01 2.8602 123.293 3.44692 120.136 2.64018C117.419 1.98012 115.143 -0.073387 112.573 0.366651C107.874 1.24673 106.626 4.25366 101.56 6.08715C68.0049 18.1149 106.112 80.3803 104.423 90.0611C100.605 87.2009 97.8886 81.9937 92.3817 82.5071C98.0354 97.9085 88.7105 113.97 101.193 125.117C104.35 127.978 108.682 129.151 112.206 131.645C117.052 161.567 116.905 189.07 113.454 214.812C101.413 209.311 93.116 196.33 84.6722 183.643C87.9029 172.348 87.4623 159.22 82.9834 144.112C80.3402 144.919 80.487 147.119 78.8717 146.166C73.8788 129.298 60.9562 100.329 55.7431 79.1335C54.0543 72.3129 55.5962 64.8322 53.9075 59.3318C51.411 51.1911 42.9673 41.5836 36.1388 42.8303C31.8802 43.6371 31.2928 49.5042 27.1811 52.5845C26.1531 51.3377 24.4644 49.2109 22.2617 48.1108C9.63268 41.6569 0.234383 47.6708 -1.01383 61.972C-9.60446 60.9452 -9.82473 71.6528 -11.4401 69.526C-14.9644 64.8323 -22.3803 68.7926 -27.7402 69.526C-31.7051 73.9997 -30.3835 83.2405 -28.7682 88.8877C-33.0268 89.7677 -40.6629 92.848 -41.3237 93.068C-41.03 93.8748 -41.03 117.563 1.40917 138.245C11.248 143.086 20.2792 155.773 32.541 166.261C38.5618 185.403 58.5332 189.07 74.1725 189.07C85.9204 205.058 99.5039 217.379 112.941 229.847C106.479 234.98 98.6228 235.42 94.9516 241.288C91.5741 246.641 93.8502 252.142 91.8678 258.596C97.3012 264.756 105.525 265.343 113.895 265.49C113.087 282.725 109.563 298.639 106.553 314.847C98.0354 307.147 88.9308 288.445 84.3051 276.711C88.7105 268.057 88.9308 255.515 80.4136 248.768C75.2739 244.735 70.795 239.601 63.6729 241.434C46.1245 245.908 58.6066 278.324 72.4838 279.938C79.3122 295.706 91.3538 310.814 101.266 327.462C100.312 331.935 97.6683 335.529 98.1823 340.736C89.7385 355.331 85.6267 374.032 77.6235 389.067C76.155 391.781 72.1167 394.201 70.2811 397.648C66.3162 404.908 63.8932 413.489 60.5156 421.337C57.2115 428.817 54.2012 436.518 49.2817 442.752C44.2889 412.389 41.2051 381.073 37.387 350.197C34.8906 329.882 28.6496 310.08 32.8347 291.892C46.1979 284.485 49.2083 263.656 40.1771 246.641C34.3766 249.722 31.7334 257.056 28.9432 259.916C14.9926 236.374 14.4787 202.711 4.1993 181.809C2.29026 177.995 -3.28998 168.975 -3.3634 168.828C-16.6532 146.899 -34.4218 150.64 -41.7643 154.087C-47.8585 157.02 -53.3653 163.181 -54.9806 165.381C-62.9838 178.289 -41.03 217.966 -40.8832 217.892C-27.2997 238.501 -4.31791 246.935 6.10832 272.897C1.26233 269.67 -2.48231 264.17 -9.01706 264.316C-9.31076 267.103 -7.54858 269.67 -6.59406 271.65C-3.6571 277.664 -0.57328 283.531 4.05244 287.125C8.01735 290.205 15.8003 291.305 18.1499 294.679C19.6184 296.732 18.8841 301.94 19.3981 306.487C19.8386 310.447 21.0869 314.774 21.6742 319.321C23.2162 331.202 25.1986 337.949 27.1811 352.177C29.2369 367.139 39.5898 439.231 37.4604 454.119C37.0933 456.466 32.8347 474.288 31.9536 476.341C26.2265 489.982 17.6359 503.477 9.11871 517.925C-0.206161 533.693 -11.0729 548.581 -17.9748 558.922C-18.1217 552.321 -16.8 538.9 -14.7441 529.953C-11.8806 517.558 -4.75845 509.344 -8.20939 492.403C-9.23733 487.416 -12.1009 482.135 -12.3212 476.121C-12.5414 469.667 -8.64994 462.92 -6.22694 455.733C1.99657 431.237 5.08038 398.601 -4.02422 366.625C-7.54858 354.304 -14.8176 341.323 -20.9852 330.175C-28.6947 316.167 -39.6349 302.673 -49.4004 290.058C-52.4842 286.025 -67.3159 259.256 -76.7876 257.056C-84.13 300.179 -106.157 340.296 -102.633 386.28C-100.21 417.45 -86.3327 447.519 -72.3821 476.781C-64.6726 492.916 -65.4068 510.664 -58.6518 525.919C-51.0891 543.007 -37.2854 556.722 -29.2087 573.223C-33.4673 580.117 -38.7539 597.425 -40.2223 599.332C-40.6629 598.599 -41.1769 597.865 -41.6908 597.058C-41.9845 598.819 -42.4985 600.652 -43.2327 602.339C-43.2327 602.412 -43.3062 602.486 -43.3062 602.559C-43.3796 602.779 -43.3796 602.926 -43.453 603.146C-42.4985 602.852 -41.4706 602.339 -41.03 602.926C-40.8097 603.659 -41.1769 604.026 -41.6908 604.392C-40.5895 604.979 -39.5615 605.566 -38.4602 606.153C-38.6804 605.786 -38.8273 605.419 -39.0476 604.979C-37.7259 605.052 -36.184 606.226 -35.5966 607.546ZM-16.5798 566.256C-17.7545 566.989 -18.0482 565.742 -18.4154 564.862C-17.9014 564.789 -17.6077 565.302 -17.0203 565.082L-16.5798 566.256ZM-14.5239 560.169C-13.7162 562.075 -14.3036 563.322 -15.9189 564.056C-16.9469 562.075 -16.9469 560.535 -14.5239 560.169ZM129.094 401.461C129.094 399.921 132.471 399.995 132.545 401.682C131.297 401.828 130.562 400.875 129.094 401.461ZM133.72 401.315C132.251 400.728 136.51 401.021 137.171 399.481C136.803 397.794 135.629 397.721 134.087 398.455C136.216 396.108 137.684 397.868 141.429 396.034C142.971 396.548 136.95 397.501 140.181 400.508C137.831 401.241 135.555 401.682 133.72 401.315ZM124.762 386.574C132.251 379.753 143.191 383.64 148.845 387.38C150.534 393.834 148.404 399.921 140.915 400.215C141.062 398.455 145.761 398.895 145.981 397.134C142.971 394.348 145.981 395.301 146.422 392.221C139.373 393.027 127.332 396.988 120.944 393.247C124.321 389.434 132.471 388.627 138.272 388.114L139.08 390.534C142.457 390.681 141.796 388.92 142.53 386.647C137.831 384.227 131.076 385.84 124.762 386.574ZM291.875 326.802C292.536 323.428 290.04 322.988 287.764 324.748C286.222 321.448 289.673 320.641 292.022 319.248C293.491 322.621 294.812 324.748 291.875 326.802ZM291.655 193.69C288.718 191.71 290.26 189.803 289.232 186.356C295.179 183.936 297.235 189.436 300.246 192.883C297.969 194.35 295.914 192.223 291.655 193.69ZM124.395 6.82055C123.807 6.96722 123.66 6.23383 123.367 5.79379C123.954 5.57377 124.101 6.38051 124.395 6.82055ZM105.598 9.68079C105.451 8.9474 106.112 9.16742 106.185 9.46077C108.755 5.72045 114.703 1.24673 119.035 5.20707C117.713 8.50736 114.336 7.62728 111.913 10.3409C110.738 6.60053 107.727 12.101 105.598 9.68079ZM105.672 83.0205C107.067 82.6538 106.773 85.514 107.507 86.4675C106.112 86.9075 106.332 83.9739 105.672 83.0205ZM103.175 67.5458C100.899 70.8461 106.993 78.2534 106.039 82.2138C96.9341 61.8253 84.3051 29.0425 101.119 12.4677C105.084 12.3944 105.525 14.6679 109.049 13.8612C109.636 17.8948 107.36 20.4617 105.378 23.2486C104.57 32.1961 103.395 43.6371 105.598 52.4378C108.021 46.7173 104.203 37.8432 109.49 33.4429C108.755 30.2159 107.287 34.1763 106.846 31.6094C106.699 29.8492 109.783 29.6292 110.518 28.3091C110.004 27.2823 108.976 27.2823 107.654 27.869C107.581 25.0821 111.325 27.3557 113.748 25.8155C112.867 23.9087 110.224 25.3021 108.241 25.5955C108.462 21.2685 111.913 21.4885 116.171 20.9018C115.804 18.6282 113.748 19.655 111.913 20.3151C112.867 16.5014 115.143 19.1416 118.227 18.9216C126.671 36.6698 121.898 51.9245 122.926 67.6192C125.349 65.9323 124.615 62.7054 123.514 59.2584C126.23 46.7907 127.919 26.2556 117.346 14.3745C119.549 11.5876 121.237 8.50736 125.716 6.82055C128.947 8.43402 131.076 10.2675 132.692 13.3478C145.981 38.3566 130.709 61.2386 128.433 80.0136C128.213 80.6003 127.332 80.8203 127.038 81.3337C127.038 81.7004 127.111 82.1404 127.185 82.4338C126.818 81.9204 126.891 81.5537 127.038 81.3337C126.818 77.74 129.755 72.7529 130.048 68.5726C125.129 72.8996 125.202 79.7202 124.321 86.1008C120.136 82.8005 119.475 79.9402 119.035 74.2931C115.364 75.3932 119.989 80.5269 116.759 81.8471C116.979 74.6598 116.538 67.1058 115.29 59.1851C112.647 67.1791 116.612 73.0463 113.087 80.967C116.759 83.3872 114.776 86.6875 113.895 89.5477C109.93 84.7073 113.014 76.1999 109.196 71.4328C108.095 75.6132 110.958 81.9204 110.811 88.521C108.168 83.1672 108.241 72.2396 103.175 67.5458ZM108.462 89.5477C107.654 90.3545 109.636 92.4813 107.434 92.628C108.315 91.8213 106.332 89.6944 108.462 89.5477ZM97.448 95.2682C98.0354 95.1215 98.1823 95.8549 98.476 96.295C97.8885 96.515 97.7417 95.7083 97.448 95.2682ZM100.165 111.403C100.752 111.256 100.899 111.99 101.193 112.43C100.532 112.576 100.458 111.843 100.165 111.403ZM117.273 124.017C116.171 123.504 115.29 124.237 114.996 125.411C112.941 125.411 115.143 123.577 114.776 122.771C111.619 124.531 114.262 119.544 110.664 120.717C110.444 118.737 110.444 116.903 112.5 116.023C112.206 114.997 111.545 114.557 110.664 114.63C108.168 115.95 109.122 118.957 106.406 120.13C106.993 117.563 108.755 115.51 108.682 112.576C107.507 111.696 105.965 114.923 105.818 116.243C102.367 113.31 106.406 109.789 106.846 107.076C104.717 105.756 104.13 109.423 103.175 110.376C99.5039 108.836 105.672 104.436 105.598 101.429C105.304 100.989 104.79 100.989 104.57 100.402C102.074 102.529 100.605 105.242 99.6507 108.176C98.3291 105.829 102.221 101.649 103.322 98.7885C101.193 96.955 101.119 96.0016 102.294 93.7281C109.71 99.0819 105.378 111.843 113.748 113.676C111.325 108.029 115.364 103.336 113.308 100.255C114.262 98.6419 114.996 97.0284 116.538 95.7816C116.391 94.6815 115.657 94.7549 114.923 94.9749C115.437 91.6746 118.594 89.6944 121.237 87.4209C125.202 96.515 122.412 103.409 126.744 110.083C127.038 109.643 127.772 107.003 129.02 108.689C130.856 102.602 134.013 99.3752 137.611 93.5814C137.024 101.649 133.793 112.723 128.874 120.277C127.038 120.277 130.122 118.59 128.433 117.05C124.982 120.937 120.283 124.237 118.007 128.711C115.07 128.491 116.905 125.338 117.273 124.017ZM120.356 169.928C119.769 166.701 121.825 164.868 122.633 162.374C122.119 161.347 121.091 161.347 119.769 161.934C118.447 159.881 122.339 160.467 121.384 158.707C121.237 156.947 119.696 157.974 118.961 157.46C119.182 154.893 122.779 153.207 118.961 151.373C120.43 151.08 121.237 150.493 121.017 149.32C116.905 146.679 121.164 141.472 118.741 140.519C116.171 140.225 119.475 139.125 119.402 138.392C122.339 147.339 122.339 159.147 123.44 168.901L120.356 169.928ZM119.989 174.768C118.888 173.228 120.356 172.862 119.549 171.542C120.356 171.468 122.706 173.228 122.779 171.101C124.762 171.028 123.073 173.228 123.807 174.182C122.412 174.695 121.678 173.742 119.989 174.768ZM35.8451 45.1772C41.7925 43.6371 49.3552 56.5449 50.53 62.7054C55.8899 90.2811 64.554 121.23 76.669 151.153C72.7775 145.066 70.4279 140.152 67.8581 133.038C65.5819 138.832 73.2915 146.899 74.0257 153.427C70.9419 150.126 69.0329 144.332 66.6833 139.565C65.0679 143.012 68.7392 147.486 69.9874 151.373C55.3025 128.784 46.565 95.8549 28.5027 76.1999C26.3734 68.4992 25.8594 59.3318 29.0901 53.5379C30.118 51.7044 34.8906 45.3972 35.8451 45.1772ZM69.5468 154.233C69.4734 153.5 70.6482 153.427 70.3545 152.62C71.0887 152.473 71.2356 153.573 71.6027 154.233C70.6482 154.747 70.3545 154.013 69.5468 154.233ZM24.3909 59.8451C21.3806 58.7451 20.7932 52.8045 18.4436 50.2376C20.6463 49.5042 24.0972 56.2515 24.3909 59.8451ZM17.2688 48.6242C17.5625 54.2713 21.7477 59.7718 23.5833 65.5656C20.2792 63.3655 19.6184 55.8848 16.2409 53.758C18.003 61.3853 21.9679 68.1325 24.8315 73.3397C20.3526 69.4526 15.8737 61.8253 13.3773 55.3714C10.3669 58.2317 16.1674 63.0721 17.2688 66.9591C12.9368 63.7322 10.9543 55.8115 7.2831 51.2644C6.40202 56.3982 12.8633 63.5855 15.2863 69.0126C13.8913 68.1325 5.00697 57.7183 4.63984 53.5379C4.05244 46.424 11.3949 47.8908 17.2688 48.6242ZM20.2792 72.0929C18.7373 72.2396 16.9751 70.5527 17.8562 68.8659C19.1044 69.086 19.3981 71.2128 20.2792 72.0929ZM1.55602 60.6519C2.06998 60.5785 2.36369 61.0919 2.95108 60.8719L3.39162 62.1187C2.14341 62.8521 1.92313 61.6053 1.55602 60.6519ZM2.51054 55.5914C5.37408 56.6915 6.47544 61.1653 8.23763 64.5389C5.88805 62.9254 1.84972 59.1851 2.51054 55.5914ZM-11.1464 77.8134C-14.377 76.1266 -17.0937 72.6063 -18.4888 70.0394C-14.8176 70.2594 -13.7162 75.4665 -11.1464 77.8134ZM-23.9956 88.2276C-29.0619 88.4476 -28.7682 75.5398 -26.8591 71.5062C-24.583 71.0661 -22.6005 71.0661 -19.8838 69.8927C-17.828 75.9799 -13.4225 77.3 -11.2932 83.3139C-15.0378 79.9402 -18.4888 75.9799 -21.4992 71.0661C-21.9397 77.6667 -13.3491 83.0938 -10.045 89.0343C-14.8176 85.5874 -17.9748 79.1335 -22.674 75.6132C-22.8208 80.6736 -16.5063 84.1939 -12.8351 88.6676C-9.53103 92.7013 -7.47515 96.8817 -4.39133 101.942C-4.09764 102.162 -3.80394 102.382 -3.43682 102.529C-3.80394 102.602 -4.17107 102.676 -4.24449 102.089C-4.31792 102.015 -4.31791 101.942 -4.39133 101.869C-11.2198 97.2484 -17.7545 84.5606 -25.5375 79.2802C-26.3452 83.3139 -18.3419 86.4675 -16.5798 91.8946C-18.7825 92.2613 -19.223 88.961 -21.8663 90.2811C-20.3244 87.2742 -24.1424 85.294 -26.1249 83.5339C-27.2997 84.7806 -25.2438 88.301 -23.9956 88.2276ZM10.1467 141.399C0.968636 133.845 -9.53103 127.098 -17.6077 121.451C-20.9852 119.104 -24.9501 117.637 -27.8137 115.363C-34.9358 109.643 -40.0021 97.5418 -38.9741 94.4615C-16.7266 83.0205 -4.90531 111.916 8.75159 124.971C13.8179 129.811 21.1603 132.085 19.1778 135.752C26.5937 145.359 37.4604 153.573 43.7015 162.227C35.4046 155.627 28.723 146.019 19.6184 141.032C27.0342 150.713 38.3415 158.047 44.5092 166.701C41.0582 164.061 38.0478 160.614 34.3032 158.56C34.964 163.547 41.6456 164.868 44.0686 169.561C30.632 164.574 22.849 151.813 10.1467 141.399ZM48.7678 169.341C49.502 167.875 47.9601 165.821 46.7119 165.234C47.8867 163.327 49.7957 168.608 51.411 169.121C51.4845 171.101 50.016 168.021 48.7678 169.341ZM1.33575 104.949C-5.05215 94.8282 -10.1918 85.6607 -7.84227 73.3397C-6.30036 65.1989 -5.56613 64.0255 3.75874 65.419C13.5242 73.1196 25.1986 76.6399 33.569 87.4209C47.0056 104.729 51.6313 131.425 66.463 151.226C63.526 151.593 60.0751 144.259 57.8724 139.785C57.7255 144.773 60.222 149.466 57.8724 154.087C49.7957 141.619 41.9393 128.784 32.9816 118.224C37.901 135.605 57.1381 150.273 59.708 169.781C57.799 170.515 57.1381 168.828 55.0088 170.001C40.9114 149.1 16.4611 128.858 1.33575 104.949ZM44.2155 174.182C45.684 171.322 46.8587 177.702 48.6944 177.409C47.5196 179.829 45.4637 175.282 44.2155 174.182ZM53.6138 175.869C52.2921 176.382 52.5858 173.815 51.9984 173.008C53.5404 171.982 53.6138 173.815 54.862 173.448C55.1557 174.548 52.953 174.475 53.6138 175.869ZM55.6696 173.815C57.799 173.962 58.2395 174.915 57.285 176.675C56.0368 177.189 56.3305 174.548 55.6696 173.815ZM50.3831 176.235C52.6593 176.235 51.0439 178.069 52.8061 179.462C51.2642 179.976 50.8971 177.849 50.3831 176.235ZM54.6417 178.875C55.3759 178.729 55.5228 179.829 55.8899 180.489C55.1557 180.636 55.0088 179.609 54.6417 178.875ZM72.8509 176.235C72.1901 174.182 69.6202 175.942 68.372 174.988C69.9139 174.768 70.795 172.128 67.9315 171.762C67.6378 170.588 69.8405 170.661 69.1797 169.341C68.6657 167.581 66.9035 168.388 65.949 167.728C66.0225 161.567 62.7918 160.467 61.0296 153.06C66.3896 157.387 79.5325 166.114 74.9068 174.255C76.9627 176.162 74.3194 175.575 75.4942 178.142C73.218 179.316 72.4838 177.335 70.2076 178.582C69.3265 176.895 73.6586 177.849 72.8509 176.235ZM66.463 179.682L66.9035 180.929C65.7288 181.662 65.4351 180.416 65.0679 179.536C65.5819 179.462 65.8756 179.902 66.463 179.682ZM59.7814 181.956C60.5156 181.809 60.6625 182.909 61.0296 183.569C60.2219 183.716 60.0751 182.616 59.7814 181.956ZM81.001 178.289C81.001 178.215 81.001 178.215 81.0744 178.142C80.8541 177.482 80.0465 175.282 78.7983 173.595C78.3577 173.668 78.064 173.815 77.9172 174.035C78.7248 171.395 81.6618 165.894 78.578 162.741C78.5046 161.861 79.9731 161.714 80.8541 161.347C80.8541 158.56 78.8717 159.881 78.4312 158.12C80.487 156.947 80.1933 154.6 81.515 152.987C82.6163 160.174 84.3051 171.395 81.1478 178.142C81.0744 178.362 81.0744 178.435 81.001 178.289ZM58.1661 250.455C58.7535 250.308 58.9003 251.042 59.194 251.482C58.6066 251.628 58.4598 250.895 58.1661 250.455ZM58.6066 255.736C60.0751 256.029 60.8828 260.209 60.4422 261.236C58.1661 260.576 60.1485 257.789 58.6066 255.736ZM60.4422 263.289C60.9562 263.216 61.2499 263.73 61.8373 263.509L62.2778 264.756C61.0296 265.416 60.8093 264.243 60.4422 263.289ZM61.8373 265.563C64.9945 268.203 68.372 275.464 72.0432 273.704C70.5748 269.817 63.8932 267.617 62.645 259.842C66.0225 263.143 68.0783 271.944 74.6865 271.43C71.2356 267.69 66.2427 261.969 65.0679 256.982C63.7463 255.735 63.0121 258.449 62.4247 257.202C60.8828 252.142 61.7639 248.695 60.3688 244.955C71.9698 241.581 85.4064 259.843 82.2492 273.704C78.7983 265.636 76.4487 256.469 69.4 251.482C72.1901 257.569 80.487 269.523 77.7703 276.564C70.3545 277.077 64.9211 273.704 61.8373 265.563ZM238.055 363.105C237.027 363.105 238.055 362.225 237.468 361.271C231.888 384.52 190.403 396.401 164.851 396.401C166.1 385.253 179.316 385.327 186.879 376.819C189.449 376.306 188.861 376.526 191.137 375.426C199.801 368.165 207.437 360.465 212.357 351.37C214.266 338.903 218.011 327.315 222.343 316.094C223.958 319.321 218.231 325.848 221.535 329.955C222.71 327.315 222.71 324.088 223.371 321.155C224.839 320.568 225.573 321.448 226.821 321.375C227.556 319.981 225.867 319.028 224.178 319.541C224.325 317.047 226.161 315.581 228.657 316.681C228.51 314.334 224.472 313.894 224.766 311.18C226.454 310.3 227.115 308.98 226.821 307.073C227.996 307.513 229.758 306.707 230.052 308.687C229.832 310.814 228.437 309.42 225.94 310.74C227.115 312.134 229.098 311.914 230.639 312.574C231.447 309.2 233.283 307.513 232.255 303.186C233.136 303.48 234.164 303.48 235.486 302.746C233.136 310.96 236.881 322.108 232.842 329.442C241.727 323.795 236.146 306.633 238.716 296.219C241.58 294.606 241.947 297.246 243.782 295.192C259.495 316.167 250.537 346.457 238.055 363.105ZM229.244 302.16C229.244 301.133 229.612 300.326 229.685 299.299C231.3 299.446 233.503 298.493 234.972 298.859C235.632 300.179 235.632 301.206 235.412 302.086C233.283 302.16 231.888 300.913 229.244 302.16ZM230.272 303.186C231.814 305.46 229.391 306.853 227.849 306.047C227.776 304.653 227.996 303.406 230.272 303.186ZM267.572 300.913C274.914 305.68 283.064 311.254 287.396 319.468C283.505 318.881 282.11 314.847 279.613 312.574C270.435 304.066 257.66 296.952 246.132 291.819C243.122 291.745 240.258 291.379 238.349 288.958C235.853 289.838 233.503 290.499 232.622 288.152C245.471 289.105 257.072 294.165 267.572 300.913ZM312.948 318.441C313.095 321.961 313.389 325.408 308.836 326.582C308.689 324.088 309.644 324.528 308.029 322.108C309.13 320.641 310.231 319.101 312.948 318.441ZM307.221 319.614C290.554 298.273 267.719 289.105 242.901 283.971C241.433 284.558 241.58 283.605 242.681 283.385C252.814 284.118 261.698 287.492 271.684 288.665C280.348 293.799 289.452 297.979 297.382 304.58C299.658 310.74 308.469 313.014 307.221 319.614ZM225.133 279.718C230.786 276.564 239.45 277.517 247.6 277.664C261.037 277.957 273.593 279.571 284.533 284.338C289.746 286.612 293.564 287.858 297.162 293.725C297.676 294.679 296.942 294.972 297.162 295.779C279.246 278.324 252.74 277.811 225.133 279.718ZM227.409 284.411C230.786 282.064 236.734 283.385 240.699 283.385C237.468 285.365 231.521 283.971 227.409 284.411ZM173.075 280.744C175.865 279.278 179.169 275.831 181.666 275.831C181.372 277.224 179.757 277.957 179.389 279.278C179.83 280.011 181.078 279.278 182.033 279.058C183.061 278.544 183.061 277.517 182.473 276.197C183.575 276.417 184.749 276.491 185.116 278.031C183.795 278.251 183.207 278.764 183.721 279.864C184.97 281.258 186.879 278.764 187.98 278.471C187.613 281.771 188.788 284.411 192.679 284.411C192.532 285.365 191.725 285.951 190.623 286.465C190.476 285.071 189.669 284.998 189.228 284.191C183.868 287.638 178.068 283.531 173.075 280.744ZM176.379 276.271C175.718 278.471 171.533 277.371 172.708 279.498C171.606 279.278 170.432 279.204 170.065 277.664C173.369 277.151 173.809 276.051 176.379 276.271ZM230.199 270.55C227.115 270.99 223.371 271.87 222.049 270.55C228.216 269.377 233.87 269.303 239.818 268.717C241.286 268.937 234.311 270.037 230.199 270.55ZM304.064 216.719C303.403 221.633 297.015 225.006 292.242 228.16C275.869 238.867 256.999 243.268 239.377 247.155C239.083 246.641 239.45 246.495 239.818 246.348C259.202 241.728 287.543 232.413 304.064 216.719ZM304.284 221.413C305.018 221.266 305.165 222.366 305.532 223.026C284.459 240.774 254.429 248.695 226.381 252.802C251.198 245.835 286.736 239.967 304.284 221.413ZM308.396 225.446C308.249 227.94 302.595 230.14 300.613 228.746C301.714 226.913 305.018 226.18 305.899 224.273C307.294 223.613 307.221 225.74 308.396 225.446ZM224.325 254.855C246.793 252.875 275.649 243.708 294.739 235.42C295.693 237.767 291.802 238.061 289.819 239.087C269.481 249.575 233.797 256.762 219.038 257.276C219.112 254.415 221.608 255.222 224.325 254.855ZM242.681 256.909C259.936 252.289 281.669 247.375 296.134 239.747C295.693 241.068 297.823 243.928 299.218 244.808C293.05 251.408 276.53 255.809 268.6 255.002C276.603 252.142 288.718 250.088 296.795 243.561C294.665 240.774 291.288 244.588 288.645 245.615C265.443 254.855 242.901 258.302 219.626 261.163C223.077 259.769 236.367 256.689 242.681 256.909ZM306.12 245.248C305.826 243.781 307.294 243.268 308.396 243.854C308.469 244.735 307.001 244.808 306.12 245.248ZM261.625 256.689C260.083 258.962 255.457 258.816 253.474 258.742C254.723 257.056 258.908 258.082 261.625 256.689ZM227.996 265.856C240.405 262.996 248.408 263.509 259.862 261.383C250.023 264.316 233.062 268.203 221.461 266.736C220.801 264.61 226.968 264.683 227.996 265.856ZM298.997 248.328C303.843 248.402 301.641 254.782 303.256 259.109C298.263 259.182 299.144 251.628 298.997 248.328ZM300.686 273.557C301.641 271.137 298.337 270.037 296.795 272.164C294.665 269.083 298.997 269.23 298.41 266.883C297.529 264.83 296.648 269.157 295.767 267.103C296.207 264.683 298.704 264.17 295.546 262.409C300.98 257.569 308.175 271.43 300.686 273.557ZM310.452 266.223C310.378 267.47 309.35 266.663 308.616 266.81C308.689 265.636 309.717 266.37 310.452 266.223ZM309.424 269.303C310.745 269.303 311.626 270.403 312.287 271.724C310.966 271.724 310.084 270.623 309.424 269.303ZM292.683 266.003L293.711 269.083C279.76 267.763 265.222 267.543 250.023 268.717C263.166 265.856 279.246 266.003 292.683 266.003ZM244.737 269.083C244.81 267.176 247.38 268.35 248.408 267.837C250.17 268.937 246.059 268.203 244.737 269.083ZM264.708 261.749C274.253 258.082 284.313 258.229 296.942 254.415L297.529 256.249C286.515 258.376 275.649 259.989 264.708 261.749ZM267.792 272.97C282.257 273.19 295.62 275.831 305.752 284.778C281.743 274.584 255.016 269.963 223.517 274.804C236.66 271.504 254.355 268.863 267.792 272.97ZM294.372 299.446C281.743 291.379 267.939 285.731 253.107 281.918C268.967 282.871 286.589 285.731 294.372 299.446ZM300.025 302.306C298.263 301.206 300.833 298.933 299.438 296.366C300.906 295.779 302.375 295.266 303.329 295.779C304.651 299.153 301.861 300.546 300.025 302.306ZM318.822 307.587C319.409 307.44 319.556 308.173 319.85 308.613C319.263 308.833 319.116 308.027 318.822 307.587ZM325.577 299.226C327.266 304.14 324.696 306.927 323.154 310.227C318.749 310.374 322.713 302.086 320.511 302.306C318.235 301.133 323.521 298.566 325.577 299.226ZM316.179 301.719C312.14 300.913 310.084 296.292 305.532 296.439C305.973 295.266 305.752 294.679 304.724 294.019C291.435 282.871 275.722 276.491 257.146 275.904C274.327 274.584 291.949 281.111 305.532 290.352C307.661 297.026 312.948 297.246 316.179 301.719ZM314.93 289.912C312.361 286.832 313.682 290.572 310.672 291.305C311.48 288.885 310.892 288.445 308.396 288.665C308.689 285.805 308.836 285.218 308.836 281.698C314.637 279.351 315.444 284.631 314.93 289.912ZM306.78 281.698C298.263 275.611 285.12 273.337 276.603 270.697C281.963 270.843 287.543 270.623 292.536 271.504C294.665 273.63 296.721 276.124 299.658 276.564C302.815 276.124 303.77 274.584 305.385 273.264C306.634 275.244 308.763 275.244 309.644 277.957C307.588 278.764 307.588 280.451 306.78 281.698ZM317.574 240.774C315.077 242.021 319.336 245.541 319.85 247.521C320.878 247.008 320.878 245.981 320.29 244.661C321.685 246.055 323.741 253.682 325.797 259.109C324.108 257.349 324.108 257.789 323.374 259.916C326.825 259.549 325.797 263.509 326.018 265.856C325.136 267.25 325.21 266.076 323.595 266.663C327.119 268.35 323.888 271.577 323.374 274.217C320.731 271.944 317.133 276.564 315.591 273.41C317.867 273.997 320.804 273.264 323.962 271.944C322.126 268.497 315.444 274.73 313.976 270.55C316.84 270.697 321.612 270.403 323.154 267.47C320.217 267.176 316.032 269.377 313.389 268.717C310.158 266.076 315.591 264.096 311.112 264.023C310.598 262.263 313.315 262.043 315.004 261.383C314.196 258.889 310.598 262.043 310.084 258.962C311.847 259.916 311.994 257.789 314.343 257.569C313.829 255.442 311.112 257.936 311.259 254.489C312.067 253.829 314.637 254.122 314.123 252.875C314.196 249.942 310.745 254.122 310.892 251.262C312.361 250.968 313.242 250.382 313.756 249.648C313.095 247.888 310.819 249.428 310.305 247.375C308.836 247.668 308.029 248.255 308.249 249.428C306.927 249.942 307.221 247.375 306.634 246.568C309.35 245.981 311.406 246.788 313.609 244.955C313.315 242.534 310.231 245.615 310.158 242.681C312.067 242.534 313.389 243.634 314.857 244.515C314.49 243.121 315.518 241.214 313.609 238.794C315.665 237.767 316.546 239.381 317.574 240.774ZM310.231 239.087C310.305 239.674 310.672 239.601 311.039 239.527C311.7 240.628 308.543 241.361 308.983 239.527L310.231 239.087ZM302.889 243.634C298.483 243.048 298.116 238.134 296.795 233.44C297.529 233.294 297.823 232.927 297.823 232.413C303.623 230.727 304.578 240.554 302.889 243.634ZM311.847 227.72C311.553 230.433 307.368 231.24 304.724 232.854C303.476 229.26 309.57 227.94 311.847 227.72ZM306.12 237.107C306.413 236.374 306.34 235.494 305.899 234.467C309.13 233.88 310.452 232.34 313.021 231.387C313.168 233.367 314.416 233.44 314.857 234.834C312.507 233.147 308.836 235.934 306.12 237.107ZM318.969 232.78C316.693 233.294 316.472 229.627 314.49 229.553C316.105 225.813 313.168 225.446 313.242 221.779C318.602 220.972 319.703 228.746 318.969 232.78ZM315.738 214.885C314.784 217.746 311.993 221.559 310.525 223.539C310.452 223.833 310.305 224.126 310.011 224.273C310.158 224.053 310.305 223.833 310.525 223.539C311.112 221.999 309.497 219.139 307.368 220.386C307.441 215.839 312.361 210.852 315.738 214.885ZM304.064 210.558C307.368 208.431 303.329 204.398 300.76 204.838C304.431 200.217 315.812 211.878 307.515 212.758C310.084 209.898 306.046 210.412 304.064 210.558ZM297.529 217.526C299.365 215.839 300.172 213.418 302.815 213.052C304.284 214.885 298.116 216.645 297.309 218.992C280.421 233 250.023 241.654 225.059 247.155C247.674 238.721 281.302 232.487 297.529 217.526ZM219.626 248.915C218.818 247.301 221.682 247.595 221.461 246.275C222.196 246.201 222.269 247.375 223.077 247.081C223.444 248.475 220.58 248.255 219.626 248.915ZM282.036 213.859C286.442 208.651 288.204 201.611 292.463 196.11C285.561 217.966 265.296 234.467 234.531 240.554C252.96 233.66 270.582 227.28 282.036 213.859ZM226.528 241.214C228.73 241.434 224.545 242.534 223.664 242.828C221.461 242.608 225.647 241.508 226.528 241.214ZM270.215 194.717C269.334 192.663 267.719 192.297 267.131 189.656C273.519 187.896 277.411 193.763 279.393 197.797C275.942 197.504 274.621 193.03 270.215 194.717ZM270.582 197.944C276.676 201.904 265.883 208.651 265.075 214.079C256.632 220.972 247.233 232.56 235.045 234.247C251.859 226.62 265.589 213.125 270.582 197.944ZM150.387 204.764C148.258 202.564 143.779 205.058 142.017 202.124C148.258 200.437 150.974 194.424 157.95 194.79C158.684 194.13 159.124 193.323 159.198 192.37C153.911 188.85 145.467 196.917 141.87 201.537C140.915 190.977 150.387 188.19 162.061 184.596C163.236 186.723 160.446 186.87 159.785 188.043C160.74 190.61 163.163 190.17 164.044 192.737C162.796 192.883 162.355 191.343 160.593 192.517C162.942 195.67 165.145 192.883 168.523 193.91C168.743 191.417 163.75 191.49 162.575 188.41C166.76 187.823 168.816 191.563 171.753 193.47C167.128 195.377 160.079 196.184 158.904 199.777C164.705 199.484 174.764 192.223 180.124 194.057C173.148 198.971 159.051 201.537 150.387 204.764ZM194.882 197.357C184.456 189.73 170.652 189.95 161.841 179.829C170.211 174.842 188.421 167.214 198.406 171.028C205.969 173.962 218.671 181.809 223.077 185.916C228.804 191.197 231.08 197.284 234.311 205.278C237.688 213.565 245.618 221.999 238.422 229.773C236.44 229.627 233.944 230.507 231.521 231.387C227.335 218.259 223.444 190.17 207.805 188.996C214.339 195.084 220.654 202.418 223.958 212.832C225.793 218.699 225.133 224.786 227.849 230.58C227.556 230.873 227.262 231.24 226.968 231.607C227.409 231.607 227.556 232.267 227.849 232.633C227.335 232.78 227.115 232.193 226.895 231.753C224.839 234.54 222.857 238.207 218.231 240.628C208.098 224.273 208.098 207.038 194.882 197.357ZM123.293 223.319C121.898 223.393 119.402 225.74 119.182 223.319C120.65 223.099 123 223.613 122.633 221.486C123.66 221.413 122.633 222.366 123.293 223.319ZM129.975 180.269C129.314 179.976 129.02 178.729 128.139 178.875C128.433 176.822 130.636 179.242 132.031 178.289C131.884 179.169 131.076 179.829 129.975 180.269ZM133.646 174.988C134.894 176.969 132.031 176.675 131.37 176.382C131.37 174.475 132.104 175.429 133.646 174.988ZM186.291 120.717C185.998 121.451 185.484 122.037 184.896 122.551C183.207 122.844 185.41 120.937 186.291 120.717ZM176.085 92.188C175.865 93.288 174.397 93.7281 173.442 94.4615C173.075 93.068 174.543 92.628 176.085 92.188ZM170.725 96.6617C168.523 99.5219 171.46 100.402 171.533 103.189C174.617 102.529 175.571 100.769 176.232 98.9352C175.131 96.8817 172.708 99.3019 172.781 100.769C171.313 98.4952 176.82 95.3416 179.903 93.6547C181.078 94.3881 181.445 96.6617 182.987 96.735C174.617 103.629 165.145 112.576 166.467 122.624C170.358 114.703 176.012 100.695 187.246 101.429C188.274 107.369 187.613 112.503 186.438 117.343C192.239 119.25 190.77 100.622 191.725 110.816C193.927 109.716 193.854 107.443 194.001 105.316C193.193 103.042 191.578 106.049 191.137 104.876L190.697 103.629C191.211 100.329 192.899 104.656 195.763 102.602C191.064 98.7152 184.823 97.9818 181.666 91.0145C186.879 89.4744 189.669 92.7013 193.12 94.6815C193.413 95.8549 191.211 95.7816 191.872 97.1017C192.899 98.4218 194.735 98.1285 195.983 99.1552C196.791 101.722 196.571 103.849 194.588 105.096C195.029 106.563 196.277 106.563 196.424 108.543C193.781 112.796 190.109 116.61 185.998 120.204C183.281 118.81 178.288 124.751 178.435 128.124C174.69 128.418 173.075 133.845 169.477 135.898C167.495 135.532 169.551 132.965 169.477 131.791C171.68 132.965 171.166 131.791 173.148 130.545C173.075 129.445 170.211 129.225 170.505 130.765C169.037 126.584 173.442 121.01 174.617 116.463C170.065 119.544 167.421 124.824 160.152 128.124C165.219 118.37 163.53 105.316 170.725 96.6617ZM153.397 128.271C153.471 129.004 152.296 129.078 152.59 129.885C150.827 130.251 151.929 127.978 153.397 128.271ZM148.698 138.685C149.285 138.539 149.432 139.272 149.726 139.712C149.139 139.859 148.992 139.125 148.698 138.685ZM148.698 140.739C149.726 141.472 151.782 141.839 150.974 143.379C149.873 143.159 149.432 141.692 148.698 140.739ZM153.25 148.073C153.838 147.926 153.985 148.66 154.278 149.1C153.618 149.246 153.544 148.513 153.25 148.073ZM151.415 152.767L150.974 151.52L152.222 151.08L152.663 152.327L151.415 152.767ZM164.851 148.293C165.512 146.606 162.869 145.506 161.988 143.819C159.345 145.359 164.411 146.826 163.016 148.953L161.18 149.54C159.859 149.1 160.813 145.139 158.757 144.259C155.233 144.919 159.785 147.193 157.142 147.486C156.334 146.313 156.554 143.232 155.086 143.379C155.453 142.572 155.894 141.766 156.334 140.959C154.719 139.565 154.572 140.886 152.443 141.546C152.957 140.152 154.792 136.779 150.827 138.685C151.268 136.999 153.764 136.412 154.278 134.798C152.81 132.525 151.782 135.678 149.139 135.825C151.048 134.065 151.562 132.085 155.453 130.325C155.233 128.784 153.911 129.371 153.838 127.464C155.233 126.291 155.38 124.531 157.289 123.577C158.757 129.004 153.764 134.505 156.481 137.439C160.813 135.018 159.932 129.958 165.659 128.271C165.953 131.278 162.649 132.305 165.219 135.238L162.135 136.265C162.502 137.219 162.649 138.685 163.53 138.539C163.53 140.372 161.694 137.585 160.666 138.099C160.226 138.392 160.226 138.905 159.638 139.125C161.768 142.572 166.393 141.326 168.596 139.565C169.477 142.059 173.515 142.572 174.103 139.785C176.379 140.666 172.194 142.572 172.047 143.892C170.505 143.892 170.285 141.252 168.596 141.619C166.907 143.452 170.358 143.379 170.432 145.066C168.523 145.139 169.11 146.459 167.568 146.679L166.32 143.012L165.072 143.452C163.603 145.139 168.669 147.339 164.851 148.293ZM144.88 159.66C146.349 157.68 147.744 155.627 150.607 154.38C149.873 157.46 146.789 156.727 147.376 160.907C146.128 161.201 146.202 159 144.88 159.66ZM142.237 163.988C141.796 162.374 143.999 161.787 145.1 162.374C145.321 164.428 143.705 163.694 142.237 163.988ZM139.373 165.601L141.209 165.014C141.723 165.968 140.989 166.261 141.209 167.068C140.695 167.141 140.401 166.628 139.814 166.848L139.373 165.601ZM137.538 168.241C139.52 168.168 137.831 170.368 138.566 171.322C136.216 171.542 137.097 169.415 137.538 168.241ZM119.549 179.682C117.713 176.895 122.853 177.629 123 175.795C123.734 175.649 123.881 176.749 124.248 177.409C123.66 178.655 121.311 179.022 119.549 179.682ZM83.0569 188.483C81.9555 186.87 81.2213 189.51 79.9731 189.51C79.0185 187.31 83.2771 187.75 81.2213 185.036C83.2771 185.696 83.4974 190.096 85.333 191.123C85.6267 191.637 85.2596 191.783 84.8925 191.93C84.3051 192.003 84.3785 192.37 84.4519 192.737C82.1024 193.103 82.2492 189.51 83.0569 188.483ZM86.9484 196.037C85.4799 196.33 85.7001 193.47 85.9204 192.957C87.0218 193.177 87.756 194.057 88.1966 195.597C87.4623 195.377 86.8015 195.23 86.9484 196.037ZM88.784 199.484C88.1232 198.164 88.1231 197.137 88.3434 196.257C89.4448 196.477 89.8853 197.944 90.6196 198.897L88.784 199.484ZM90.9867 200.071C91.7209 199.997 91.7943 201.171 92.602 200.877C92.6754 201.611 91.5006 201.684 91.7943 202.491C90.2524 202.931 90.9133 200.511 90.9867 200.071ZM93.2628 202.711C94.3642 203.151 95.0984 204.398 95.6858 205.938C93.7768 206.818 92.602 204.031 93.2628 202.711ZM96.7138 207.038C97.6683 207.185 98.2557 207.991 98.7696 209.091C97.5214 208.871 95.9061 208.431 96.7138 207.038ZM99.5773 211.512C100.312 209.825 103.469 211.732 103.836 214.152C101.413 215.325 101.266 211.878 99.5773 211.512ZM106.112 214.739C106.332 215.619 106.626 216.499 107.36 216.352C107.507 217.085 106.406 217.232 105.745 217.599C104.864 216.132 103.836 215.619 106.112 214.739ZM107.727 219.652C107.948 218.919 108.902 218.552 108.315 217.379C109.636 217.379 110.518 218.479 111.178 219.799C110.444 219.946 110.15 220.312 110.15 220.826C108.829 221.559 108.902 219.359 107.727 219.652ZM118.154 218.186C118.814 205.791 119.622 193.47 119.182 180.489C120.797 181.516 122.633 182.102 124.468 180.049C126.01 182.176 126.891 180.489 129.167 181.882C127.258 186.723 124.101 190.903 126.304 197.797C125.349 198.971 123.44 198.017 123.881 200.657C129.094 200.951 123.881 208.431 118.961 208.431C119.916 209.678 123.514 210.852 124.468 208.651C126.451 208.578 123.367 210.045 124.688 211.292C122.045 212.758 120.87 211.438 118.741 211.878C119.182 215.472 123 212.172 123.881 214.959C121.384 216.719 120.063 213.565 118.814 215.985C119.842 217.305 121.091 218.186 123.293 217.232C123.22 220.239 119.402 218.846 118.154 218.186ZM111.619 223.099C111.766 222.146 112.573 221.559 113.675 221.046C114.923 222.733 112.647 222.586 111.619 223.099ZM116.098 228.38C117.346 226.84 112.72 225.74 114.042 224.273C115.584 223.759 114.923 224.493 115.07 225.3C116.245 226.033 118.08 225.373 119.328 225.886C119.842 227.573 117.713 227.866 116.098 228.38ZM119.182 259.989C111.986 261.529 99.2102 264.316 95.3187 255.736C97.6683 254.489 99.4305 257.642 102.661 257.349C103.909 255.075 99.6507 255.222 99.2102 253.095C102.955 251.702 104.937 248.328 106.773 251.262C106.186 248.915 109.343 245.615 110.664 248.622C110.738 245.615 115.51 242.974 117.419 246.348C118.961 245.248 117.199 242.534 120.063 242.094L121.091 245.175C123.073 242.168 122.633 239.381 126.01 243.561C125.569 240.187 126.818 240.848 127.625 238.281C115.731 238.647 105.378 245.835 95.9795 251.555C95.7593 248.255 96.4201 245.321 97.0075 242.388C108.608 236.3 126.23 224.639 144.146 222.586C161.4 220.606 188.053 229.407 201.123 236.227C207.437 239.527 221.241 247.815 214.78 256.836C196.057 241.581 172.488 235.934 147.597 233C145.835 233.294 147.817 235.494 146.569 236.08C168.302 238.061 200.609 246.421 216.615 262.336C217.423 263.143 218.745 268.863 218.671 272.53C195.543 287.125 176.893 267.323 158.684 261.969C147.23 261.676 132.765 257.056 119.182 259.989ZM160.813 276.711C160.593 275.244 163.897 275.171 164.484 275.464C164.411 277.591 162.208 275.537 160.813 276.711ZM168.155 272.237C168.743 272.09 168.89 272.824 169.183 273.264C168.596 273.41 168.449 272.677 168.155 272.237ZM152.076 276.931C149.946 277.811 151.708 274.364 148.845 275.317C151.048 273.044 157.362 273.997 162.942 272.677C158.831 275.757 153.177 273.85 152.076 276.931ZM125.129 263.436C140.475 261.016 153.177 263.876 164.925 268.497C165.292 269.157 165.145 269.597 164.705 269.89C150.313 270.77 139.373 272.677 125.349 276.197C124.542 271.65 127.479 268.863 125.129 263.436ZM119.182 268.13C120.797 267.617 121.311 269.303 122.412 269.743C122.486 271.724 120.577 269.45 119.328 270.77C118.741 269.597 119.255 269.083 119.182 268.13ZM111.472 306.12C111.472 305.533 116.318 307.953 117.419 305.533C117.199 303.773 113.895 303.26 113.748 304.726C111.986 304.286 112.28 303.553 112.133 301.866C114.189 300.766 115.143 304.066 116.245 301.866C115.364 300.546 114.262 299.666 112.353 300.473C111.692 298.419 113.675 297.686 112.794 295.559C114.629 295.266 115.143 297.686 116.905 297.612C118.08 296.146 115.29 294.165 113.822 294.532C112.867 292.699 113.895 291.819 113.822 290.425C114.923 291.232 115.877 292.479 117.273 292.699C118.888 289.692 113.234 288.372 114.85 285.365C116.465 284.925 116.391 287.785 118.521 286.171C117.64 283.238 114.336 284.045 115.217 280.451C117.126 279.278 116.832 282.651 118.888 281.258C120.063 279.424 116.832 278.031 115.584 277.591C115.51 276.564 117.346 276.417 116.024 274.73C117.346 275.171 117.787 277.371 119.475 277.004C120.356 275.831 118.007 272.457 116.612 272.53C117.126 271.284 120.65 272.604 122.119 272.75C120.577 275.391 122.045 279.424 123.587 281.111C131.59 277.371 138.419 276.051 148.111 274.951C146.642 276.197 147.67 278.397 150.167 277.004C148.184 279.204 142.677 279.718 139.373 281.258C139.153 278.984 137.831 278.911 136.95 278.031C134.747 278.471 137.684 281.478 136.363 282.284C134.747 283.531 134.821 281.258 134.307 280.231C129.975 280.304 133.646 284.338 129.608 284.485C128.58 282.651 130.122 282.211 128.58 281.404C126.597 282.064 126.818 283.898 127.332 285.878C126.083 286.025 126.377 283.091 124.248 284.851C121.605 292.039 120.87 300.179 118.961 307.66C115.217 309.493 113.675 307 111.472 306.12ZM110.664 307.733C112.059 308.247 113.014 309.787 114.776 309.787C114.189 311.474 110.958 309.86 110.664 307.733ZM110.224 310.594C111.545 310.08 111.252 312.647 111.839 313.454C111.252 313.307 110.664 313.16 109.783 313.454C109.416 312.207 111.252 312.06 110.224 310.594ZM100.826 319.174C99.5773 317.561 101.853 317.634 102.881 317.121C102.074 313.747 100.679 315.581 98.6228 316.534C97.448 314.774 100.312 314.994 100.458 313.894C99.9444 312.574 98.476 313.087 97.0075 313.674C98.7696 310.227 94.2173 310.594 92.5286 308.393C92.1615 306.78 93.8502 308.907 94.9516 307.587C90.3259 306.047 93.1894 301.646 88.6371 300.839C89.2979 298.419 88.7105 295.486 85.5533 295.779C86.2141 291.452 80.1199 288.958 82.1024 283.311C80.2668 280.671 78.1375 284.998 77.1829 280.891C79.092 281.038 79.8996 281.918 81.6618 280.084C87.5358 295.486 95.3921 307.147 105.378 318.368C103.542 317.928 102.441 317.634 100.826 319.174ZM105.378 320.348C106.259 322.328 103.102 322.255 102.294 323.428C102.074 321.741 103.102 319.321 105.378 320.348ZM109.049 317.121L110.297 316.681L110.738 317.928L109.49 318.368L109.049 317.121ZM113.675 316.901C114.703 318.441 112.867 318.514 113.234 319.761C112.573 320.348 111.986 316.827 113.675 316.901ZM120.063 317.488C118.814 314.994 121.678 309.714 122.706 305.02C123.734 300.326 124.248 295.119 125.569 291.159C138.052 285.145 153.397 281.404 166.76 280.158C172.781 284.851 179.536 287.932 186.952 289.765C174.323 305.753 142.751 318.368 120.063 317.488ZM104.937 333.402C115.143 335.016 126.157 337.216 139.447 332.742C138.786 329.662 135.629 331.495 133.132 332.155C130.709 330.982 134.307 330.615 133.352 328.708C132.251 327.682 129.975 330.395 131.076 332.155C129.461 331.642 126.891 333.109 125.129 332.742C123.954 330.835 127.332 331.129 125.937 329.075C124.688 327.535 122.339 332.302 124.321 332.302C123.66 332.962 116.318 333.842 117.566 330.469C113.601 332.889 109.269 330.029 105.965 328.195C119.108 317.121 138.859 320.714 153.911 314.921C167.274 309.787 177.334 302.6 186.952 293.725C187.686 294.019 188.274 294.532 188.788 295.119C189.155 293.212 189.449 291.452 191.651 289.398C192.973 289.178 192.973 291.452 194.295 291.232C192.165 286.758 197.378 283.385 202.445 281.038C202.445 282.578 200.242 285.658 198.186 284.485C197.452 286.685 196.35 288.665 195.543 290.792C200.315 290.352 200.682 283.091 204.941 286.318C206.41 284.485 204.647 281.038 208.392 280.378C209.787 282.798 208.906 284.045 207.951 285.291C210.007 286.465 212.504 283.531 213.018 282.211C212.871 280.084 210.742 281.991 209.934 281.184C212.137 277.224 213.752 283.018 215.074 284.265C217.643 283.825 214.706 280.671 214.633 278.984C219.038 277.077 219.773 282.358 221.168 286.318C213.165 298.273 200.829 308.1 189.742 318.514C204.427 313.234 213.605 300.326 222.783 289.105C232.328 297.539 221.021 311.914 214.853 320.274C202.224 336.996 176.893 349.537 151.782 351.517C138.272 352.617 124.982 347.997 114.189 344.99C110.444 341.25 105.965 338.536 104.937 333.402ZM100.899 339.563C101.633 337.216 104.35 339.343 104.79 340.956C103.175 341.03 102.441 339.489 100.899 339.563ZM101.486 341.396C103.249 342.203 102.074 343.376 101.927 344.623C100.018 345.21 99.0633 341.543 101.486 341.396ZM98.4025 348.51C98.4025 347.483 98.7696 346.677 98.8431 345.65C100.091 345.87 101.119 347.263 100.458 348.51C99.871 348.364 99.2836 348.217 98.4025 348.51ZM-2.48232 272.677C-3.58368 269.303 0.381241 270.99 0.968636 272.897C-0.206154 273.044 -0.646706 271.504 -2.48232 272.677ZM37.5339 253.902C40.9114 261.383 40.1037 274.657 35.0374 283.165C33.7158 281.844 33.7892 284.411 34.4501 284.045C33.7892 285.071 33.055 286.025 32.1739 286.905C34.964 284.118 28.9432 282.064 29.5306 276.931C31.8802 277.151 33.055 277.517 34.4501 275.317C34.0095 273.19 31.4397 275.244 31.3662 272.237C33.4221 272.017 32.6879 272.237 34.4501 271.21C34.2298 267.69 29.9712 268.57 30.7788 266.296C31.7334 267.103 32.9816 267.323 34.8906 266.296C34.0829 263.069 33.055 265.123 31.6599 264.683C31.4397 260.063 35.6248 257.569 37.5339 253.902ZM27.9887 276.124C27.4013 276.271 27.2545 275.537 26.9608 275.097C27.5482 274.951 27.695 275.757 27.9887 276.124ZM24.9049 258.816C23.8036 259.036 23.1427 258.229 22.849 256.762C23.8035 256.909 24.4644 257.716 24.9049 258.816ZM-29.2087 155.92C-29.0619 156.874 -30.9709 156.727 -30.6038 157.754C-32.5862 157.094 -30.8975 155.333 -29.2087 155.92ZM-45.9494 162.814C-45.1418 163.988 -44.2607 164.794 -42.2782 163.621C-41.7643 161.641 -45.362 163.327 -43.5264 162.007C-42.2048 159.807 -40.9566 164.354 -38.3867 163.034C-36.7714 161.054 -41.8377 160.834 -40.4426 158.927C-36.3309 157.314 -36.6246 156.947 -33.1002 156.507C-30.2367 167.361 -45.6557 169.488 -52.9247 172.642C-52.4108 170.515 -48.299 165.748 -45.9494 162.814ZM-53.2919 179.536L-53.7324 178.289L-51.8968 177.702L-51.3094 179.536C-51.9702 179.316 -52.631 179.169 -52.5576 179.976C-52.9982 180.269 -53.145 179.902 -53.2919 179.536ZM-46.1697 180.562C-46.6102 181.736 -46.39 182.322 -45.362 182.983C-44.2607 182.322 -44.8481 180.856 -42.7188 180.709C-42.8656 181.296 -43.0125 181.882 -42.7188 182.762C-44.8481 183.276 -47.4913 184.889 -49.0332 184.229C-49.7675 182.836 -48.3724 182.542 -49.4738 181.002C-48.0787 180.269 -47.7116 181.662 -46.1697 180.562ZM-45.1418 177.482C-44.3341 177.922 -42.7922 176.895 -42.7188 178.729C-43.5264 178.289 -44.9949 179.316 -45.1418 177.482ZM-36.4043 173.228C-36.2574 174.842 -38.2399 175.355 -39.4881 176.309C-39.3413 174.768 -38.6804 173.595 -36.4043 173.228ZM-49.8409 177.702L-47.4179 176.895L-46.8305 178.729C-47.5648 177.922 -49.7675 179.902 -49.8409 177.702ZM-19.4433 236.227C-35.0826 223.466 -49.4004 201.171 -53.5855 181.002C-51.6031 179.902 -48.6661 186.063 -50.5017 186.063C-48.299 187.09 -45.8026 185.769 -41.9111 185.256L-40.6629 188.923C-43.0859 188.556 -42.6453 190.023 -44.7746 190.977C-40.1489 195.377 -37.8728 204.398 -33.3205 208.945C-33.6876 210.265 -36.3309 210.485 -37.212 211.585L-38.607 207.331C-37.1385 207.038 -36.3309 206.451 -36.5511 205.278C-36.9183 203.884 -38.8273 205.718 -39.7818 205.718C-40.4426 203.518 -41.9111 200.877 -40.3692 199.777C-45.1418 198.971 -43.2327 191.197 -46.9039 188.336C-47.5648 197.577 -41.3237 208.065 -34.6421 218.919C-31.4849 218.259 -34.3484 214.299 -35.67 213.859C-35.3764 211.952 -32.1457 211.512 -30.7506 210.192C-33.6142 203.151 -41.3237 195.597 -39.3413 190.61C-29.5024 210.485 -16.3595 222.513 -3.58368 238.501C-2.62917 240.334 -4.68504 240.701 -4.39133 242.168C-5.05215 241.801 -6.00667 239.527 -8.06255 239.307C-8.13597 237.914 -7.40173 236.887 -7.25488 235.64C-8.35625 234.027 -9.09049 236.667 -10.3387 236.667C-11.8806 234.614 -13.2757 233.66 -12.1743 231.167C-13.2757 229.553 -14.0099 232.193 -15.2581 232.193C-16.9469 229.26 -20.0307 227.866 -17.6811 224.859C-19.223 224.126 -19.223 225.3 -20.7649 225.886C-22.0866 223.979 -24.1424 222.659 -22.6005 220.386C-23.2614 218.992 -24.7298 219.506 -24.4361 220.972C-26.1249 220.386 -28.5479 217.672 -27.7402 215.252C-28.4745 214.225 -30.6038 215.839 -30.9709 214.079C-30.7506 215.985 -30.5303 216.792 -31.1912 219.139C-29.0619 219.359 -26.0515 221.853 -26.7123 224.419C-25.1704 225.373 -21.1321 226.766 -22.2334 229.7C-20.4712 230.067 -16.1392 232.707 -16.1392 235.787C-17.5343 236.52 -17.828 235.127 -19.4433 236.227ZM-11.2198 244.368C-11.2198 241.654 -13.6428 243.781 -13.6428 241.141C-12.9085 241.434 -12.0275 241.361 -10.9995 240.921C-11.1464 239.894 -11.954 240.041 -12.2477 239.307C-13.7896 239.527 -13.2022 240.848 -15.1113 240.921C-15.5518 239.087 -17.0937 239.527 -17.5343 237.694L-13.8631 236.447C-10.7792 238.281 -11.3666 241.801 -8.35625 242.754C-10.2653 242.828 -9.67788 244.148 -11.2198 244.368ZM-8.35625 246.788C-8.57652 245.468 -7.10803 245.028 -7.3283 243.708C-6.81433 243.634 -6.52065 244.148 -5.93325 243.928C-5.71297 245.248 -7.18146 245.688 -6.96118 247.008C-7.47515 247.081 -7.76885 246.641 -8.35625 246.788ZM-5.71297 248.622C-3.0697 246.935 -1.30753 247.815 -0.646706 245.541C-1.16068 244.881 -1.82149 244.515 -2.92285 244.955C-3.6571 243.194 -2.18861 242.608 -2.92285 240.848C-0.940399 240.334 0.74836 239.601 0.968636 238.207C0.0875397 235.274 -1.38095 239.307 -2.48232 237.987C-2.92286 235.714 0.454659 235.347 0.74836 233.514C-1.23409 231.02 -1.16068 234.687 -3.51025 234.907C-2.70258 233.367 -2.77601 231.607 -5.56612 232.854C-6.59406 231.313 -4.75845 231.24 -5.12558 229.993C-5.56612 228.893 -7.32831 230.287 -7.98913 229.553C-6.6675 225.813 -11.954 227.06 -10.6324 223.613C-22.4537 214.079 -29.7961 201.611 -38.3867 185.329C-34.275 184.963 -36.4043 180.709 -32.8799 181.442L-33.6876 179.022C-34.7155 177.335 -34.789 180.049 -36.1106 179.829C-35.8169 179.096 -35.8903 178.215 -36.3309 177.189C-34.4953 176.235 -33.4673 177.702 -32.6597 175.942C-32.8065 174.548 -33.9079 175.062 -34.9358 175.355C-34.8624 173.888 -34.1281 172.715 -31.852 172.275C-32.366 170.515 -33.9079 171.028 -35.5232 171.468C-35.3763 168.388 -31.4849 170.295 -28.9884 168.608C-12.6148 178.069 -4.68504 210.192 5.15381 227.94C6.10832 226.546 8.45789 225.886 7.79707 223.686C6.76913 221.999 6.69572 224.713 5.37408 224.493C-1.38094 205.131 -6.37379 193.983 -14.0099 178.655C-13.1288 178.435 -12.2477 178.142 -12.3946 177.409C-12.7617 174.255 -15.7721 178.802 -15.8455 177.189C-16.6532 175.282 -14.1568 174.988 -13.5694 173.742C-14.0833 172.055 -17.1672 173.155 -16.6532 174.768C-18.1951 174.768 -18.4154 172.128 -20.1041 172.495C-19.5901 171.101 -18.0482 170.148 -18.0482 168.388C-19.6636 167.508 -20.6915 169.268 -20.6915 170.661C-22.2334 170.661 -22.4537 168.021 -24.1424 168.388C-24.2159 166.848 -22.674 166.041 -22.7474 164.501C-25.5375 163.034 -24.8767 168.681 -27.6668 166.114C-28.9884 163.768 -25.097 163.988 -26.4186 161.641C-27.006 160.174 -28.4745 162.154 -28.0339 162.887C-29.1353 162.667 -29.5758 161.201 -30.3101 160.247C-23.1879 153.573 -16.0658 161.347 -11.2932 168.168C-15.9924 165.308 -19.8838 160.834 -25.1704 159.22C-25.6109 159.514 -25.6109 160.027 -26.1983 160.247C-20.251 163.621 -15.1847 168.828 -9.23734 172.275C-6.30037 170.735 -11.8072 169.635 -10.4855 168.608C-1.89491 173.815 1.92314 184.816 5.66778 194.497C10.3669 206.745 10.8075 222.513 16.094 237.914C13.9647 236.961 12.9368 239.747 9.9998 239.967C11.248 242.314 12.0557 240.628 14.1116 239.967L15.1395 243.048C14.6255 244.001 13.2305 244.441 11.6886 244.881C11.9088 247.448 15.0661 244.221 15.9472 245.468C15.4332 247.668 17.4156 249.208 17.1954 251.188C15.8737 249.428 14.699 247.375 11.6886 248.915C9.63268 243.121 6.10831 240.334 3.75874 235.274C2.14341 237.621 6.10831 241.508 7.42995 244.221C5.81462 245.615 5.08038 245.321 2.14341 246.641C2.14341 245.248 4.86011 245.321 4.56641 243.781C4.05244 242.461 1.84972 244.368 0.674927 244.368C0.381233 247.008 -3.73052 253.389 -5.71297 248.622ZM7.50338 245.615C9.11871 248.328 6.3286 248.768 4.05244 249.502C3.75875 247.448 6.32859 246.861 7.50338 245.615ZM-2.04176 253.535C-1.30753 251.848 0.0875397 250.528 2.06999 249.428L2.87766 251.848C0.895203 252.435 -0.132736 254.489 -2.04176 253.535ZM6.32859 252.142C6.32859 250.675 8.53132 249.135 9.55926 249.722C10.8809 251.702 7.42995 251.335 6.32859 252.142ZM5.88805 256.982L5.4475 255.736L6.69571 255.295L7.13626 256.542L5.88805 256.982ZM9.9998 252.949C11.1746 251.995 13.2305 251.482 13.0836 249.868C14.8458 250.455 14.8458 254.489 15.9472 256.396C12.5696 258.009 11.9823 253.975 9.9998 252.949ZM16.5346 258.229C16.3877 257.349 19.1044 259.182 21.0134 257.422L22.0414 260.503L19.6184 261.309C21.7477 257.936 18.0765 259.622 16.5346 258.229ZM27.9887 286.318C26.5202 289.032 21.0869 285.511 21.6742 289.765C18.9576 287.565 16.9017 289.178 13.8913 288.958C13.2305 285.511 16.7548 285.365 18.5904 286.685C20.4995 284.558 18.1499 282.064 21.8211 280.158C19.5449 277.151 18.1499 282.725 16.094 281.404C15.2129 278.397 19.031 277.811 20.3526 275.904C20.2058 274.877 19.3981 275.024 19.1044 274.29C15.2863 276.491 13.8913 279.864 11.762 282.871C12.1291 284.558 14.9926 281.184 14.8458 283.898C12.4228 283.605 11.5417 287.785 8.89844 286.538C9.63268 285.218 11.6151 284.485 11.762 282.871C11.4683 282.431 10.9543 282.431 10.734 281.844C7.72365 282.211 8.31104 284.338 5.66778 284.925C5.59435 282.651 8.75159 282.064 8.75159 279.791C8.23762 279.058 7.35653 279.204 6.91599 278.397C5.52093 279.204 3.9056 279.938 4.63984 281.844C1.26233 281.478 5.81462 278.177 7.06283 276.931C7.72365 278.984 9.77953 278.324 10.2935 280.598C13.157 277.297 16.8282 274.364 18.4436 270.403C14.0381 269.45 14.7724 275.391 10.8809 276.344C11.8354 273.41 19.545 266.516 14.5521 266.956C12.0557 266.15 16.6814 264.683 15.1395 262.703C20.2792 264.756 26.3 274.51 25.5657 281.624C27.6216 282.211 28.2824 285.805 30.8523 285.291C31.9536 287.052 29.5306 287.052 30.632 288.738C29.8978 287.932 28.209 288.518 27.9887 286.318ZM25.1252 320.568C25.4189 319.834 25.3455 318.954 24.9049 317.928C25.4189 316.974 26.8139 316.534 28.3559 316.094C27.9153 314.261 26.5202 314.334 25.4923 313.674C24.1707 311.254 28.1356 313.747 27.3279 311.034C27.5482 308.54 25.1252 311.327 24.9049 309.787C23.5833 307.733 27.3279 308.32 27.3279 306.927C27.1811 304.433 24.6846 306.707 24.4644 304.506C27.1077 303.773 26.9608 301.719 27.695 300.033C29.5306 301.866 26.9608 312.72 29.5306 319.834C28.1356 320.054 27.0342 319.614 25.1252 320.568ZM33.1284 368.899C34.5235 364.498 30.4117 363.471 33.569 359.951C33.1284 359.144 31.6599 360.318 31.2928 359.365C30.4852 357.238 34.0829 357.384 33.3487 355.257C32.9081 354.524 31.6599 355.257 30.7054 355.478C29.4572 351.957 29.8978 349.317 28.8698 345.87C31.2928 346.237 31.5865 345.137 32.1005 343.45C31.8068 341.69 28.9433 345.063 28.6496 343.23C27.7685 341.103 31.146 341.03 29.8978 338.756C25.786 339.636 29.6041 336.703 29.6775 334.062C29.2369 333.329 27.9887 334.062 27.0342 334.282C26.2265 332.009 28.5761 331.349 28.8698 329.589C28.3559 328.928 27.695 328.562 26.5937 329.002C29.1635 326.508 26.4468 326.215 25.3455 323.281C25.7126 321.228 28.6496 323.575 28.7964 321.448C32.1005 330.982 30.9257 341.543 33.1284 348.584C33.1284 349.757 30.1915 349.537 30.4852 350.857C36.8731 351.077 32.7613 361.931 35.6248 368.165L33.1284 368.899ZM37.6073 394.568C32.7613 391.267 38.8555 388.847 34.5235 385.4L36.9465 384.593C37.0933 381.22 34.3766 383.64 33.8627 381.513C35.4046 378.066 35.1843 375.353 33.055 372.932C31.9536 370.805 35.6983 371.172 35.3311 369.485C37.3136 378.139 36.5059 386.94 39.4429 398.015C38.8555 398.895 37.387 399.335 37.6073 400.655C36.8731 399.775 34.5235 396.401 37.6073 394.568ZM39.6632 404.762C39.2226 404.028 37.9744 404.762 37.0199 404.982C37.3136 403.588 36.3591 401.608 39.2961 401.535C41.1317 406.815 40.9848 407.915 41.5722 412.316C40.6911 412.756 39.0023 412.756 39.2226 413.709C37.8276 410.922 37.3136 407.329 39.6632 404.762ZM39.4429 420.53C38.1213 418.183 43.3344 419.063 41.4988 416.423C40.1772 414.223 39.9569 419.21 39.0758 417.23C38.2681 414.516 39.7366 415.763 41.7191 414.956C42.9673 417.083 41.9393 418.11 42.747 420.016C41.7191 420.016 39.81 421.85 39.4429 420.53ZM39.6632 423.17C40.9848 422.51 42.0127 422.51 42.8938 422.73C42.6736 423.39 42.5267 424.05 43.3344 423.977C43.0407 425.224 40.9848 425.517 40.1037 426.397C40.324 425.517 40.324 424.49 39.6632 423.17ZM41.2785 432.117C39.4429 432.117 41.4988 429.917 40.0303 428.451C42.0128 428.304 42.0862 427.057 43.4812 426.617C43.1141 428.451 42.8204 429.477 44.2889 431.091C43.7749 431.384 43.6281 431.017 43.4812 430.651C43.4812 429.551 41.2785 431.531 41.2785 432.117ZM42.1596 438.645C40.0303 438.351 42.1596 436.004 40.7645 434.391C42.6001 433.951 42.1596 432.411 43.9952 431.971C44.656 434.024 43.9952 435.344 45.2434 437.691C43.7015 437.251 42.3799 437.985 42.1596 438.645ZM41.7191 443.558C42.0128 441.872 41.2785 442.458 41.2785 440.332C42.233 439.598 44.4357 441.285 44.3623 439.305C46.3448 439.231 44.656 441.432 45.3903 442.385L41.7191 443.558ZM40.4708 462.26C41.5722 463.8 40.1037 464.167 40.9114 465.487C39.3695 465.487 37.901 462.773 40.4708 462.26ZM37.0199 468.201C38.7087 467.687 37.901 466.807 39.4429 467.394C40.7645 469.594 37.3136 470.694 37.0199 468.201ZM32.3208 482.648C32.541 483.969 31.0725 484.409 31.2928 485.729C29.1635 485.435 30.8523 482.869 32.3208 482.648ZM29.8978 487.562C29.8978 488.369 29.5306 489.102 28.5027 489.396C28.5027 488.589 28.8698 487.929 29.8978 487.562ZM27.695 491.009C27.7685 491.889 26.9608 492.329 27.1076 493.283C25.4189 493.576 26.2265 490.936 27.695 491.009ZM21.9679 500.397C24.1707 500.323 21.6742 501.864 21.9679 502.45C20.0589 502.744 22.5553 501.203 21.9679 500.397ZM9.70611 522.839C10.6606 524.672 8.60474 525.039 8.89844 526.506C6.98941 526.139 8.01735 523.059 9.70611 522.839ZM7.2831 527.752C8.45789 529.659 5.37408 529.513 5.66778 530.979C3.39162 530.466 5.37408 527.899 7.2831 527.752ZM-36.8448 538.387C-41.6174 534.94 -38.4602 528.706 -40.9566 524.085C-37.1385 526.212 -38.5336 533.913 -36.8448 538.387ZM-40.0755 512.278C-45.2886 512.131 -50.6486 512.351 -53.7324 508.024C-50.6486 508.317 -41.9845 506.117 -40.0755 512.278ZM-40.8832 505.751C-45.7292 504.357 -54.7603 506.557 -55.2009 499.663C-50.0612 500.983 -44.1138 500.543 -40.8832 505.751ZM-40.7363 492.109C-42.0579 492.769 -43.0859 492.769 -43.967 492.549C-44.7012 491.156 -43.3062 490.863 -44.4075 489.322C-43.0125 489.836 -40.9566 489.249 -40.7363 492.109ZM-34.4218 472.308C-32.2191 471.868 -31.0443 470.914 -29.7227 470.034C-27.52 470.474 -30.7506 472.454 -28.915 472.454C-30.0164 474.288 -33.9079 476.561 -34.4218 472.308ZM-33.761 478.248C-31.338 477.955 -30.8975 475.608 -28.8416 476.635C-29.0619 478.542 -29.8695 480.228 -32.0723 481.108C-32.8799 480.522 -33.4673 479.715 -33.761 478.248ZM-32.5862 485.949L-33.3939 483.529C-30.824 483.015 -31.4114 483.235 -29.1353 482.135C-28.9884 484.042 -29.5758 485.582 -32.5862 485.949ZM-32.9533 490.863C-31.7786 489.909 -30.9709 488.809 -29.0619 488.222C-28.915 491.229 -28.6947 494.163 -28.8416 497.023C-29.7961 497.39 -31.2646 497.536 -31.1177 498.417C-33.1736 497.17 -31.6317 493.429 -32.9533 490.863ZM-29.0619 500.47C-27.8871 502.597 -29.2087 503.477 -28.0339 505.531C-28.9884 506.411 -29.943 507.291 -31.2646 507.951C-31.0443 505.237 -32.8799 501.424 -29.0619 500.47ZM-30.0898 517.778C-30.0164 515.798 -29.8695 513.818 -30.8975 511.251C-28.9884 511.178 -29.5758 509.858 -28.0339 509.638C-27.8137 512.791 -25.2438 518.658 -30.0898 517.778ZM-28.8416 525.552C-28.401 524.599 -28.8416 523.132 -29.429 521.665C-28.3276 522.179 -27.4465 521.445 -27.1528 520.272C-24.9501 521.372 -25.9781 525.186 -28.8416 525.552ZM-21.9397 554.448C-24.1424 551.588 -25.9781 546.161 -22.16 543.667C-20.251 546.087 -22.8208 550.781 -21.9397 554.448ZM-25.7578 542.86C-25.0235 540.147 -21.3523 538.973 -19.6636 536.773C-18.7091 539.927 -23.7753 542.86 -25.7578 542.86ZM-19.0762 534.5C-22.0866 533.62 -22.9677 537.433 -26.8591 537.8C-26.9326 533.693 -21.0586 532.52 -18.7091 529.659C-17.4608 529.879 -19.4433 532.886 -19.0762 534.5ZM-14.8176 482.062L-15.2581 480.815C-13.0554 481.622 -14.891 484.702 -13.2022 486.902C-14.6707 488.222 -16.9469 489.102 -17.314 491.009C-15.1847 492.769 -14.891 490.643 -12.1743 489.982C-12.7617 491.083 -11.8806 492.843 -11.3666 494.456C-12.3212 494.823 -13.7896 494.97 -13.6428 495.85C-13.8631 498.343 -11.4401 495.556 -11.2198 497.096C-9.23734 509.124 -15.5518 517.045 -17.5343 527.092C-21.7194 527.532 -24.9501 532.813 -27.9605 530.539C-26.492 525.332 -19.6636 525.259 -17.9748 519.758C-19.9573 518.365 -21.2055 521.519 -23.4816 521.592C-23.0411 520.638 -23.4816 519.172 -24.069 517.705C-21.5726 517.485 -21.8663 514.698 -19.9573 515.651C-20.7649 512.278 -22.16 514.111 -24.2159 515.065C-24.2159 508.464 -29.5758 499.15 -23.1879 495.703C-23.2614 494.31 -26.5654 492.696 -25.4641 495.116C-27.8871 491.743 -27.1528 485.435 -24.069 483.089C-24.583 482.062 -25.6109 482.062 -26.9326 482.648C-27.5934 479.935 -23.8487 479.422 -23.2614 477.368C-21.4992 478.101 -22.8208 481.988 -20.6181 483.309C-18.9293 481.842 -17.1672 482.502 -14.8176 482.062ZM-6.66749 410.702C-8.42967 409.602 -7.622 405.495 -8.5031 403.148C-5.34586 402.195 -3.51025 399.555 -2.40888 399.041C0.0141144 402.855 -4.02422 407.769 -6.66749 410.702ZM-10.3387 399.701C-11.4401 404.468 -10.6324 412.096 -9.53103 416.423C-6.52064 413.416 -6.08009 412.316 -2.18861 409.896C-1.38094 417.596 -3.51025 423.83 -3.21655 431.311C-7.84228 434.244 -12.1743 437.398 -14.8176 441.285C-12.3212 442.825 -7.76885 437.618 -5.05216 436.004C-2.99628 438.571 -6.59406 442.752 -9.7513 444.365C-9.7513 446.419 -7.98913 445.025 -6.88776 444.805C-8.35625 456.1 -18.4154 468.054 -14.5973 478.688C-15.5518 479.568 -17.9748 478.175 -19.2964 480.962C-21.5726 479.495 -21.2055 474.948 -21.3523 472.821C-24.069 474.948 -23.2614 475.681 -26.6389 477.295C-28.5479 472.968 -22.2334 472.674 -21.7195 469.521C-23.3348 468.274 -24.583 471.428 -27.2263 471.354C-27.3731 468.201 -24.2893 466.734 -23.5551 464.02C-28.0339 466.147 -28.5479 468.127 -34.2016 468.934C-34.1281 467.467 -33.3205 466.294 -34.4218 464.24C-28.2542 462.773 -22.5271 457.933 -18.9293 453.606C-23.7019 454.119 -27.0794 459.547 -31.5583 460.573C-30.0164 458.446 -27.4465 456.833 -26.0515 454.633C-29.2087 453.386 -29.6493 457.933 -33.8344 457.933L-34.8624 454.853C-25.8312 448.986 -17.828 442.605 -12.2477 435.051C-13.1288 433.731 -15.9924 436.371 -16.9469 435.271C-16.7266 433.511 -17.2406 431.384 -17.5343 429.331C-19.2964 431.311 -18.7091 434.538 -22.2334 435.638C-21.7929 434.684 -22.2334 433.218 -22.8208 431.751C-20.6915 430.577 -19.8104 428.817 -18.1217 427.497C-19.6636 425.957 -20.6181 428.891 -22.3803 428.891C-23.7753 428.01 -22.6005 428.084 -23.1879 426.47C-24.583 432.337 -27.8871 434.391 -34.6421 437.105C-34.7155 435.711 -33.6876 434.831 -34.6421 432.998C-30.8241 430.797 -27.2997 428.524 -26.492 424.857C-28.7682 425.297 -31.338 428.964 -34.4218 429.551C-35.1561 428.157 -33.761 427.864 -34.8624 426.324C-28.1074 421.41 -20.3978 416.863 -17.0937 410.189C-22.0866 412.462 -26.7857 419.283 -34.2016 421.997C-35.67 419.356 -33.6876 418.55 -34.789 416.056C-27.2263 412.096 -20.6181 406.889 -16.6532 401.168C-14.891 398.601 -14.7441 394.054 -10.9261 393.834C-11.8806 395.081 -13.3491 396.034 -12.982 397.941C-9.53104 397.648 -6.37379 392.734 -3.21655 390.607C-0.0593185 393.834 -6.59406 401.461 -10.3387 399.701ZM-41.3237 459.693C-41.1769 461.453 -41.2503 463.14 -41.7643 464.607C-44.5544 464.9 -43.6733 460.573 -44.0404 459.913C-42.939 459.473 -42.4251 460.207 -41.3237 459.693ZM-34.4218 460.06L-33.1736 459.62C-32.4394 460.793 -33.6876 461.087 -34.5687 461.453C-34.6421 460.94 -34.2016 460.72 -34.4218 460.06ZM-64.5992 442.972C-70.0326 442.385 -67.3893 433.878 -70.3263 427.864C-72.4556 429.844 -70.106 434.098 -69.8857 437.251C-74.3646 436.225 -73.1898 431.457 -75.3925 428.891C-76.861 429.991 -75.7597 432.411 -75.6128 434.391C-83.7629 434.904 -82.8818 418.55 -86.2593 412.756C-85.5251 411.362 -82.7349 414.443 -80.5322 413.563C-82.0741 412.169 -89.1963 407.035 -87.6544 402.342C-86.1859 402.855 -84.4971 402.782 -83.9832 405.202C-71.6479 409.456 -59.7532 414.589 -45.4355 414.736C-44.9949 416.863 -42.4251 414.809 -42.3516 417.816C-53.8058 421.923 -63.0573 413.049 -73.1898 411.069C-66.0677 417.23 -53.2918 420.97 -42.1314 422.437C-42.7188 423.537 -41.544 425.444 -42.1314 426.544C-51.1625 425.81 -58.6518 422.143 -67.2424 420.676C-63.6447 424.343 -54.8338 426.47 -48.4459 428.01C-48.299 429.257 -49.8409 429.697 -48.6661 431.457C-50.2815 429.404 -50.9423 430.504 -50.0612 433.291C-53.8058 433.731 -56.5225 428.671 -60.0469 431.897C-59.9734 430.577 -59.7532 429.331 -60.0469 427.79C-63.4244 432.044 -58.8721 440.258 -61.8825 444.732C-64.3055 438.278 -64.8194 433.658 -64.9663 429.477C-68.0501 432.411 -65.4803 438.131 -64.5992 442.972ZM-69.5186 438.498C-68.7844 439.892 -70.1794 440.185 -69.078 441.725C-70.62 442.458 -72.6024 438.351 -69.5186 438.498ZM-85.8922 397.721C-83.0286 396.768 -79.9448 399.555 -80.7525 402.782C-82.0007 402.562 -83.0286 401.901 -84.4237 401.975L-85.8922 397.721ZM-49.5472 388.334C-49.8409 387.454 -48.0787 385.107 -49.9878 385.107C-48.0787 381.953 -44.7012 386.867 -44.4809 387.38C-45.2152 389.727 -47.9319 387.6 -49.5472 388.334ZM-49.1801 340.59C-39.4881 369.192 -38.9741 395.668 -37.9462 423.17C-41.9845 397.061 -42.3516 368.385 -49.1801 340.59ZM-55.8617 377.553C-52.3373 377.333 -49.8409 379.02 -46.4634 379.166C-47.7116 382.907 -56.3022 380.486 -55.8617 377.553ZM-76.9344 367.579C-78.6966 367.725 -79.8714 366.625 -81.4133 366.332C-82.2944 360.978 -81.8539 357.164 -81.6336 351.444C-72.8961 354.011 -64.9663 358.191 -56.5225 361.418C-55.4212 361.858 -53.8792 360.758 -53.8792 363.251C-61.0014 362.811 -66.0677 358.338 -73.2632 358.191C-71.1339 360.171 -71.2808 364.205 -70.9871 368.972C-72.8227 369.925 -73.1898 367.872 -74.6583 368.165C-76.1268 363.031 -75.0988 359.144 -75.9065 354.304C-79.798 357.018 -76.1268 362.371 -76.9344 367.579ZM-55.054 343.303C-55.4946 341.69 -53.2919 341.103 -52.1905 341.69C-52.1171 343.89 -53.2918 342.35 -55.054 343.303ZM-54.4666 357.311C-55.4946 359.071 -57.6239 356.871 -59.3861 356.871C-59.8266 352.911 -60.4874 348.877 -62.2496 344.257C-55.9351 343.45 -56.8896 353.424 -54.4666 357.311ZM-53.659 347.557L-51.236 346.75L-50.208 349.83C-51.9702 350.27 -53.3653 349.977 -53.659 347.557ZM-52.1905 353.864C-49.2535 353.131 -49.5472 356.798 -49.1067 358.924C-52.0436 360.318 -52.1905 355.477 -52.1905 353.864ZM-69.592 361.051C-64.3789 360.538 -66.1411 366.258 -64.3055 370.805C-65.4068 369.999 -66.8753 369.852 -68.5641 370.219C-70.1794 366.478 -69.6654 363.838 -69.592 361.051ZM-64.0118 363.251C-60.1937 363.398 -58.4315 367.872 -59.0924 371.832C-64.3789 372.272 -63.1307 366.112 -64.0118 363.251ZM-53.4387 372.639C-55.1275 373.299 -55.4946 371.246 -57.1099 371.832C-58.2113 369.559 -57.0365 368.459 -58.3581 366.112C-53.5121 364.058 -54.9072 369.412 -53.4387 372.639ZM-52.9982 367.725C-49.1067 367.065 -46.8305 369.192 -46.9039 373.812C-48.1522 373.226 -49.6941 373.299 -51.1625 373.226L-52.9982 367.725ZM-50.7954 364.278C-50.8689 362.298 -50.1346 363.251 -48.5193 362.885C-47.2711 364.792 -50.208 364.572 -50.7954 364.278ZM-58.3581 376.306L-57.7707 378.139C-62.1762 379.093 -64.3789 375.719 -68.197 375.499C-66.5816 371.759 -61.8825 377.406 -58.3581 376.306ZM-25.6843 398.748C-25.097 398.601 -24.9501 399.335 -24.6564 399.775C-23.9222 405.568 -31.1177 407.402 -33.6142 411.582C-36.5511 406.522 -27.6668 403.002 -25.6843 398.748ZM-47.0508 409.969C-45.362 410.849 -45.0683 409.235 -44.1873 408.355C-44.3341 405.789 -47.0508 406.889 -46.0229 404.908C-44.7746 404.542 -44.7012 406.302 -43.1593 405.348C-42.7922 407.402 -43.2327 409.089 -42.5719 411.289C-44.5544 411.656 -46.39 411.949 -47.0508 409.969ZM-50.1346 410.922L-50.9423 408.502C-50.3549 408.649 -49.7675 408.795 -48.8864 408.502C-49.4004 409.309 -48.3724 410.849 -50.1346 410.922ZM-43.5999 399.921C-42.7188 402.855 -44.7012 401.168 -46.8305 402.342C-47.1242 400.288 -48.5927 400.801 -47.8585 399.261C-46.0963 398.748 -45.8026 401.241 -43.5999 399.921ZM-53.5855 404.615C-55.1275 405.055 -56.5959 405.495 -56.2288 406.889C-55.3477 408.209 -52.8513 406.302 -52.7779 409.162C-53.8792 410.849 -56.5225 409.162 -58.2847 408.942C-59.5329 405.935 -59.6798 403.515 -59.5329 401.168C-57.6239 402.488 -54.5401 401.315 -53.5855 404.615ZM-60.5608 408.282C-62.3965 408.869 -63.2041 407.402 -64.8194 407.695C-66.0677 404.542 -65.4803 402.268 -66.2879 399.335C-61.1482 398.235 -60.7811 404.102 -60.5608 408.282ZM-66.8753 405.642C-68.7109 406.595 -69.592 405.568 -70.9871 405.642C-72.6024 402.268 -72.1619 399.995 -73.2632 396.841C-69.1515 394.714 -66.9487 400.508 -66.8753 405.642ZM-42.5719 429.477C-40.7363 429.477 -42.7922 431.677 -41.3237 433.144L-45.5823 434.538C-46.3166 432.484 -47.1976 430.357 -46.0229 429.257C-44.1873 427.35 -42.939 431.751 -42.5719 429.477ZM-59.9 432.557C-53.5121 432.484 -56.7428 441.578 -56.0085 446.199C-60.5608 445.465 -59.3126 436.298 -59.9 432.557ZM-54.8338 435.638C-48.2256 433.804 -50.7954 443.558 -49.3269 448.106C-50.8689 447.812 -52.2639 447.225 -53.8058 446.859C-54.2464 443.045 -54.0995 439.525 -54.8338 435.638ZM-47.8585 438.058C-48.4459 438.205 -48.5927 437.471 -48.8864 437.031C-48.299 436.885 -48.1522 437.618 -47.8585 438.058ZM-38.5336 433.584C-37.9462 433.438 -37.7993 434.171 -37.5057 434.611C-38.093 434.758 -38.1665 434.024 -38.5336 433.584ZM-48.8864 439.085C-48.299 438.938 -48.1522 439.671 -47.8585 440.111C-48.5193 440.258 -48.5927 439.525 -48.8864 439.085ZM-45.2152 443.999L-42.1314 442.972C-42.4985 442.312 -42.3516 441.872 -41.9111 441.578C-41.9845 438.645 -45.0683 441.798 -45.362 439.305C-44.7012 438.938 -45.2152 438.571 -45.5823 438.718C-45.0683 436.445 -42.5719 438.791 -41.1034 437.911C-41.544 440.918 -40.8832 444.439 -41.3237 447.519L-44.9949 448.766C-45.5089 446.932 -44.7746 445.759 -45.2152 443.999ZM-24.8033 433.804C-21.646 438.791 -30.3101 441.945 -34.4218 443.778C-35.1561 442.385 -33.761 442.092 -34.8624 440.552C-31.4849 439.378 -27.52 436.665 -24.8033 433.804ZM-26.2717 441.725C-23.4816 439.451 -20.7649 437.325 -19.1496 434.611C-16.2126 437.178 -21.2055 439.305 -23.6285 441.578C-26.9326 444.585 -29.6493 448.399 -34.0547 449.132C-33.3205 445.612 -28.9884 443.999 -26.2717 441.725ZM-41.544 452.946C-40.4426 454.486 -41.9111 454.853 -41.1034 456.173C-42.1314 455.806 -43.5264 456.32 -44.5544 455.953C-44.2607 454.266 -44.9949 454.853 -44.9949 452.726C-44.0404 453.093 -42.5719 452.579 -41.544 452.946ZM-4.24449 381.366C-6.66749 381.88 -6.59406 383.567 -7.10803 385.033C-6.59406 386.354 -5.12558 385.84 -3.6571 385.253C-3.95079 387.014 -5.4927 388.04 -7.10803 389.14C-9.09048 383.347 -10.045 381.22 -11.5869 375.719C-9.60445 374.839 -7.9157 373.812 -7.3283 372.272C-5.4927 374.106 -5.93324 376.453 -4.24449 381.366ZM-13.4225 351.811C-16.4329 356.798 -20.1041 361.418 -23.6285 366.112C-18.7825 365.305 -16.2126 358.924 -12.0275 356.138L-10.4121 361.051C-15.3315 365.232 -18.6356 370.219 -22.0131 375.133C-17.0937 373.666 -12.7617 367.505 -9.53103 363.472C-7.98912 363.472 -8.13598 366.845 -7.25488 368.165C-9.53104 370.292 -10.9995 372.786 -14.0099 374.472C-11.3666 379.533 -11.0729 384.667 -8.06255 392.221C-8.94363 392.441 -9.82473 392.734 -9.67788 393.467C-10.6324 390.387 -13.5694 385.107 -15.405 378.359C-17.314 382.467 -10.1918 391.121 -15.7721 393.467C-18.1951 393.467 -19.4433 387.014 -19.223 385.107C-22.5271 388.48 -17.3874 393.321 -18.6356 397.134C-20.0307 397.941 -20.7649 399.115 -21.7195 400.215C-23.1879 400.435 -22.9677 397.281 -23.7753 396.108C-21.7194 395.961 -23.1879 394.054 -21.1321 393.834C-22.674 393.834 -24.4361 395.301 -25.6109 392.587C-26.9326 393.101 -25.0235 395.301 -25.0235 396.474C-28.4011 398.821 -30.824 401.755 -34.789 403.808C-35.8903 402.122 -34.3484 401.681 -35.3764 399.921C-30.6038 397.574 -28.6947 393.761 -26.4186 390.167C-28.6947 390.387 -31.852 394.568 -34.5687 396.254C-38.0196 391.267 -29.2087 388.04 -28.6213 383.42C-31.4114 384.887 -33.3939 386.794 -35.7435 388.554C-42.2782 373.739 -25.8312 368.312 -21.646 357.384C-21.9397 356.944 -22.4537 356.944 -22.674 356.358C-22.8942 355.037 -24.4361 357.091 -24.2893 357.604C-25.6844 357.018 -26.5654 355.331 -27.1528 353.131C-25.9781 351.077 -23.4082 351.664 -23.2614 348.437C-21.5726 349.757 -20.251 351.884 -18.7825 353.717C-14.377 351.957 -23.8487 345.137 -18.1951 343.303C-16.4329 345.503 -15.8455 350.49 -13.4225 351.811ZM-24.2893 345.943C-26.492 347.263 -26.3452 351.811 -29.3556 351.077C-29.5758 353.571 -27.8871 356.504 -26.2717 358.191C-26.7857 358.778 -27.2997 359.364 -27.7402 359.951C-29.1353 356.431 -29.943 351.517 -32.8065 350.857C-32.366 354.157 -30.8241 357.164 -29.5024 360.611L-27.8137 360.025C-30.8975 363.912 -33.3939 368.019 -38.3133 371.026C-40.0021 361.785 -41.9111 347.777 -45.6557 340.883C-44.9215 338.243 -42.4251 336.409 -41.1769 333.916C-39.635 333.182 -39.9286 336.116 -38.093 334.942C-35.8903 333.549 -38.6804 332.816 -38.9007 330.469C-37.0651 330.029 -37.1385 328.635 -36.4777 327.608C-31.852 330.395 -26.5654 337.803 -30.7506 342.716C-28.2542 342.496 -28.5479 339.709 -26.6389 340.663C-26.2717 343.083 -24.583 343.23 -24.2893 345.943ZM-69.592 320.274C-66.1411 320.421 -66.6551 322.695 -65.4803 326.362C-68.1235 326.582 -69.9591 323.208 -69.592 320.274ZM-71.2074 323.501C-74.2912 323.868 -74.5849 319.101 -74.0709 316.974C-71.2808 317.488 -70.8402 320.788 -71.2074 323.501ZM-55.2743 330.395C-57.477 330.762 -57.477 326.728 -58.5784 324.675C-56.3022 324.308 -56.3022 328.415 -55.2743 330.395ZM-41.6174 316.387L-40.3692 320.054C-43.5264 322.401 -44.8481 325.628 -47.1242 328.415C-49.6206 324.235 -43.5264 319.981 -41.6174 316.387ZM-60.7811 328.195C-63.7915 329.369 -65.1866 324.015 -63.4244 322.255C-61.9559 323.061 -61.6622 326.142 -60.7811 328.195ZM-72.6024 331.422C-73.1164 329.295 -72.8227 327.608 -74.0709 325.115C-70.8402 324.821 -70.7668 330.029 -72.6024 331.422ZM-68.9312 328.195C-66.7285 328.268 -63.7181 330.762 -64.4523 333.476C-67.3893 334.649 -68.0501 331.055 -68.9312 328.195ZM-62.2496 332.082C-60.1937 330.982 -59.7532 333.256 -59.1658 335.162C-62.2496 335.969 -60.6343 333.329 -62.2496 332.082ZM-55.4946 333.916C-54.7603 334.429 -54.1729 335.309 -53.8792 336.776C-55.4946 338.316 -57.991 334.209 -55.4946 333.916ZM-47.3445 331.862C-43.2327 329.662 -41.7643 323.428 -38.9741 322.255C-38.8273 322.988 -38.4602 323.281 -37.9462 323.281C-40.2958 327.388 -42.5719 331.495 -46.3166 334.942L-47.3445 331.862ZM-49.5472 339.416C-49.2535 338.536 -49.2535 337.509 -49.9878 336.189C-49.0332 335.676 -47.4179 339.709 -49.5472 339.416ZM-22.2334 335.676C-21.7194 337.656 -20.251 337.876 -19.9573 340.37C-21.0586 341.03 -21.0586 342.203 -22.6005 342.643C-22.8942 340.223 -24.5096 340.37 -24.8767 337.949C-22.8208 337.803 -24.2893 335.896 -22.2334 335.676ZM-25.4641 330.029C-24.7298 330.542 -24.1424 331.422 -23.8487 332.889C-24.4361 333.769 -25.9046 334.209 -25.6843 335.529C-27.52 335.749 -27.8137 332.962 -28.9884 331.862C-26.9326 331.642 -27.52 330.175 -25.4641 330.029ZM-37.3588 310.814C-34.0547 316.754 -30.0898 321.448 -26.9326 327.755C-29.0619 326.655 -28.5479 329.149 -30.3835 329.589C-33.3205 324.235 -38.3867 320.421 -36.4777 315.287C-37.9462 314.774 -39.7818 315.067 -40.1489 312.427C-38.607 312.207 -39.2678 310.887 -37.3588 310.814ZM-39.1944 309.42C-44.1138 313.087 -45.4355 318.514 -49.7675 322.475L-51.0157 318.808C-46.4634 315.141 -45.2152 309.787 -41.03 305.973C-40.516 307.367 -39.3413 307.44 -39.1944 309.42ZM-51.3828 315.507C-55.3477 309.787 -46.4634 306.047 -46.0963 300.839C-39.4881 304.873 -49.4738 311.034 -51.3828 315.507ZM-47.3445 299.226C-50.208 302.013 -50.5752 306.12 -54.4666 308.393C-55.9351 302.38 -51.1625 299.519 -50.208 294.752C-53.5855 294.606 -54.9806 299.373 -56.7428 301.719C-59.6063 298.199 -53.9527 294.606 -53.5121 291.085C-51.1625 293.285 -48.7395 295.266 -47.3445 299.226ZM-54.4666 290.058C-57.4036 290.792 -57.5505 292.919 -58.3581 294.752C-62.4699 291.525 -56.5959 288.812 -57.3302 285.585C-55.9351 286.171 -55.1275 287.858 -54.4666 290.058ZM-60.7811 287.418C-63.351 281.844 -65.774 278.764 -69.1515 270.477C-65.26 275.977 -57.5505 280.891 -60.7811 287.418ZM-91.1787 324.748C-88.6089 311.107 -82.3678 299.226 -79.798 285.585C-77.9624 285.585 -76.5673 286.612 -74.6583 286.612C-74.0709 284.411 -77.3016 282.798 -78.9169 281.918C-78.5498 276.637 -75.8331 272.604 -75.6862 267.25C-69.3717 276.271 -69.4452 287.052 -64.4523 298.859C-69.3717 298.493 -66.3614 291.379 -69.9591 290.499C-71.3542 291.672 -71.1339 293.652 -70.1794 295.999C-72.8227 296.586 -73.9975 294.019 -76.2736 293.945C-73.1164 303.993 -62.0293 298.126 -60.3406 311.034C-67.5361 309.493 -72.9695 304.36 -80.1651 302.673C-76.2736 308.54 -67.3893 313.234 -59.7532 314.921C-58.505 317.047 -59.5329 318.074 -58.7252 319.981C-61.0748 320.641 -60.6343 315.581 -62.3965 315.067C-65.4803 316.021 -62.1762 316.974 -63.2041 318.734C-66.6551 315.727 -73.924 317.488 -74.8786 310.374C-77.4484 311.107 -75.0988 313.527 -78.1092 312.794C-75.3191 316.241 -76.2002 323.428 -76.2736 328.488C-78.1092 329.075 -78.9169 327.608 -80.5322 327.902C-80.4588 323.721 -80.1651 319.614 -81.5602 314.627C-83.3223 317.854 -82.0007 322.548 -83.1755 326.068C-85.9656 325.115 -88.5355 323.061 -91.1787 324.748ZM-89.1963 328.782C-88.7557 327.022 -86.4796 330.102 -84.9377 329.369C-85.6719 331.935 -88.0949 329.222 -89.1963 328.782ZM-93.2346 330.835C-89.4166 331.569 -85.3782 333.696 -86.4796 338.756C-89.9305 337.363 -95.6576 335.236 -93.2346 330.835ZM-95.0702 337.583C-92.2067 338.023 -90.4445 340.516 -86.9201 339.636C-87.8746 347.63 -89.49 355.331 -89.7837 363.692C-91.5459 364.792 -91.5459 362.371 -93.2346 363.472C-93.5283 362.005 -93.0143 360.831 -94.0423 358.998C-91.6193 359.805 -89.7102 354.451 -91.1787 353.277C-91.5459 352.544 -93.308 353.057 -93.0143 353.864C-96.3184 349.464 -95.9513 342.716 -95.0702 337.583ZM-98.154 361.051C-97.3464 358.044 -97.9338 354.377 -97.3464 351.297C-93.4549 352.031 -94.6297 359.438 -96.5387 361.931C-96.6121 360.758 -97.3464 360.831 -98.154 361.051ZM-99.5491 375.133C-94.0423 377.406 -88.2418 379.093 -82.5881 381.073C-85.3048 374.619 -101.825 376.306 -98.9617 364.792C-94.336 366.112 -88.462 368.532 -84.4237 368.019C-84.3503 367.872 -84.3503 367.725 -84.2769 367.579C-84.5706 365.525 -86.553 366.992 -87.067 365.525C-86.6999 356.724 -89.49 346.31 -83.1755 340.443C-84.2769 338.389 -83.4692 337.216 -83.3958 335.749C-81.707 336.189 -80.5322 337.509 -78.2561 336.776C-78.0358 334.576 -83.5426 335.089 -83.7629 330.469C-77.9624 334.209 -71.0605 335.602 -65.1866 339.196C-62.3965 339.123 -59.6798 339.049 -58.2113 341.616C-62.1762 342.13 -64.0118 338.169 -68.4172 339.563C-62.9838 342.056 -64.4523 348.95 -61.6622 355.698C-69.1515 353.644 -76.2002 350.71 -83.3223 347.997C-83.3958 354.597 -82.5147 361.711 -84.2034 367.579C-84.2034 367.725 -84.13 367.799 -84.13 367.945C-84.2034 367.945 -84.2769 367.945 -84.2769 367.945C-84.3503 368.239 -84.4237 368.459 -84.4971 368.752C-82.0741 369.559 -76.2736 367.579 -76.347 372.859C-73.9975 371.686 -74.5849 371.906 -72.0884 371.466C-73.2632 373.886 -69.2983 371.099 -69.6654 374.692C-72.0884 374.399 -74.438 374.106 -76.7876 373.666C-71.3542 378.066 -60.3406 380.266 -52.4842 383.273L-51.0891 387.527C-54.6135 388.114 -56.3022 385.107 -60.2671 386.5C-55.9351 390.461 -49.4004 389.874 -44.5544 392.807C-43.5999 394.641 -44.6278 395.521 -44.5544 396.914C-49.5472 396.548 -48.0787 399.555 -50.5017 401.608C-50.722 401.021 -51.3828 401.388 -51.8968 401.388C-53.4387 398.088 -52.4842 396.034 -53.3653 393.027C-56.4491 394.054 -53.145 398.235 -54.3932 400.141C-56.4491 400.508 -57.3302 398.528 -59.4595 399.115C-60.4874 397.281 -59.9734 396.108 -60.2671 394.641C-61.9559 395.008 -62.0293 396.181 -61.2951 397.721C-63.5712 398.161 -64.746 396.401 -66.5816 396.108C-67.7564 394.054 -66.2145 392.221 -68.197 391.194C-69.7389 391.781 -68.7109 393.614 -68.197 395.301C-71.6479 394.788 -73.7038 394.421 -74.1443 389.8C-75.8331 390.167 -75.3191 391.634 -75.1723 392.881C-76.4939 393.101 -76.9344 391.634 -78.2561 391.854C-75.9799 393.981 -73.7772 398.601 -73.3367 404.468C-75.1723 405.055 -75.9799 403.588 -77.5953 403.882C-79.3574 398.088 -80.4588 392.587 -80.2385 387.747C-83.8363 388.847 -80.5322 393.394 -80.8259 396.108C-83.5426 397.428 -84.2769 394.861 -86.553 395.301C-87.3607 388.774 -87.067 387.38 -90.2242 382.246C-91.913 380.78 -90.7382 385.033 -92.6472 385.107C-95.9513 382.32 -100.724 381.146 -99.5491 375.133ZM-98.3009 388.994C-98.5946 387.527 -98.0806 386.353 -99.1085 384.52C-96.1716 383.787 -95.2905 387.087 -92.3535 386.353C-91.5459 389.36 -92.1332 388.7 -91.1053 392.074C-94.1891 392.221 -95.9513 390.021 -98.3009 388.994ZM-96.9058 401.388L-94.4828 400.581C-96.3918 397.281 -98.2275 397.134 -97.7869 392.807C-91.0319 393.247 -91.0319 399.188 -89.7837 406.449C-92.5738 405.642 -95.8045 405.642 -96.9058 401.388ZM-94.4094 412.829C-95.3639 410.996 -94.0423 410.336 -95.2171 408.355C-93.308 408.649 -92.0598 410.189 -89.9305 409.969C-88.462 412.756 -89.5634 414.223 -88.3152 416.936C-90.5913 415.983 -92.2067 413.783 -94.4094 412.829ZM-89.7102 428.891C-89.9305 424.784 -91.6927 422.877 -92.5738 418.256C-86.039 418.77 -86.7733 423.39 -84.4237 430.504C-86.6999 431.091 -87.5809 428.671 -89.7102 428.891ZM-88.3152 433.218C-85.2314 433.584 -82.3678 434.244 -81.5602 439.158C-84.2034 437.911 -87.3607 437.765 -88.3152 433.218ZM-59.9 508.024C-59.9 498.05 -64.5992 485.215 -68.9312 477.075C-67.4627 477.075 -66.3614 476.708 -65.26 475.828C-67.2424 474.654 -68.0501 472.014 -69.9591 473.994C-71.5745 474.875 -70.62 470.474 -72.2353 471.354C-70.9871 469.961 -66.9487 471.648 -65.1131 472.381C-64.1586 469.961 -65.9942 468.347 -67.9767 463.8C-70.106 464.46 -69.0046 466.66 -68.4172 468.714C-70.4731 468.714 -71.2808 466.22 -74.1443 467.907C-79.284 457.126 -81.4867 450.012 -85.1579 440.992C-82.0007 441.505 -79.798 443.925 -77.8155 446.712C-74.8786 444.072 -78.9169 441.212 -79.284 436.298C-77.7421 436.591 -76.347 437.178 -74.8051 437.545C-74.2177 447.372 -64.8929 448.032 -57.8442 449.572C-56.6694 449.792 -55.4212 450.232 -55.568 452.213C-51.9702 449.352 -51.4562 452.799 -48.0053 452.433C-48.299 453.313 -48.299 454.339 -47.5648 455.66C-57.991 455.806 -64.8194 448.619 -75.0988 448.546C-66.4348 452.579 -57.8442 456.906 -47.9319 458.52C-47.4179 460.5 -46.0229 462.847 -46.6837 464.24C-54.3198 463.287 -60.414 459.106 -67.9033 457.64C-69.6654 459.767 -66.6551 459.473 -66.2879 462.553C-64.8194 462.26 -64.0118 461.673 -64.2321 460.5C-56.8162 463.287 -50.0612 467.467 -41.3971 467.834C-40.2223 469.961 -41.9111 470.621 -41.1769 472.528C-47.8585 471.574 -54.1729 469.961 -60.3406 468.054C-60.1937 471.501 -54.1729 472.088 -51.1625 473.114C-52.7045 475.241 -51.3828 478.762 -51.7499 481.475C-47.8585 481.988 -49.1801 477.001 -50.3549 473.554C-46.6837 473.041 -44.3341 475.168 -41.3971 475.975C-40.9566 479.275 -41.9845 481.768 -40.9566 485.362C-42.4251 485.655 -43.7467 485.435 -45.0683 485.362C-45.0683 483.162 -45.1418 480.888 -42.7922 479.862C-43.453 476.781 -46.6837 478.175 -45.876 474.801C-48.8864 475.168 -45.5089 478.762 -48.5193 479.055C-46.8305 480.668 -47.1242 482.282 -46.6837 484.555C-49.7675 485.582 -51.3828 483.749 -53.8058 483.529C-54.9806 480.228 -55.4212 477.295 -55.4212 474.581C-58.1378 475.755 -56.0085 479.422 -55.6414 482.135C-56.5225 483.602 -56.9631 482.062 -57.9176 483.529C-54.5401 488.076 -48.7396 485.582 -46.6837 490.643C-50.6486 492.916 -55.3477 488.442 -59.7532 488.222C-60.1203 488.736 -60.5608 489.176 -61.3685 489.469C-56.9631 492.916 -51.0157 493.283 -45.876 495.19C-45.7292 495.923 -46.39 495.703 -46.4634 495.41C-47.7116 495.996 -45.7292 498.123 -46.6837 498.857C-43.1593 498.93 -44.7746 496.436 -43.0125 495.556C-42.7922 496.143 -42.1314 495.776 -41.6174 495.776C-40.516 497.463 -42.0579 497.903 -41.03 499.663C-47.1242 500.323 -51.6031 497.683 -56.5225 495.996C-57.4036 494.09 -57.9176 491.229 -60.414 492.549C-60.1203 495.923 -58.2113 501.717 -56.5225 508.244C-58.1378 509.271 -58.1378 506.924 -59.9 508.024ZM-59.9 510.078C-58.3581 510.371 -56.9631 510.958 -55.4212 511.324C-56.2288 513.011 -54.5401 515.578 -53.5855 516.825C-52.2639 516.165 -50.8689 515.505 -51.9702 513.598C-47.8585 514.111 -44.4075 516.165 -40.1489 516.458C-39.8552 517.925 -40.3692 519.098 -39.3413 520.932C-40.7363 521.005 -41.9845 520.785 -42.2048 518.512C-47.3445 524.232 -54.9072 513.084 -56.8896 519.318C-59.5329 517.338 -58.3581 513.011 -59.9 510.078ZM-56.5959 519.832C-52.0436 520.565 -48.6661 523.645 -43.7467 523.719C-43.453 525.186 -43.967 526.359 -42.939 528.193C-49.4004 528.853 -56.7428 526.359 -56.5959 519.832ZM-51.8968 529.806C-48.7396 529.879 -46.7571 532.373 -43.0859 531.639C-41.6174 533.473 -43.0125 536.333 -41.4706 536.553C-45.1418 539.267 -52.1171 534.866 -51.8968 529.806ZM-45.5823 540.587C-43.8201 540.514 -41.9111 540.074 -40.6629 541.027C-39.7818 544.987 -44.9215 542.787 -45.5823 540.587ZM-34.9358 545.941C-36.184 545.354 -36.8448 543.594 -37.5791 542.054C-35.4498 540.807 -35.8903 544.694 -34.9358 545.941ZM-38.2399 550.414C-39.0476 549.241 -40.3692 549.168 -40.6629 547.187C-38.2399 546.087 -37.5056 548.361 -34.7155 546.601C-34.275 547.701 -35.0092 548.141 -34.4953 549.241C-36.0372 548.361 -35.9637 550.194 -38.2399 550.414ZM-36.6246 553.275C-35.5232 552.981 -35.5966 552.101 -34.3484 551.881L-31.4849 560.462C-33.3939 559.729 -34.6421 556.282 -36.6246 553.275ZM-25.9781 582.977C-24.6564 585.838 -27.4465 586.644 -27.3731 588.918C-29.5758 587.598 -28.2542 583.784 -25.9781 582.977ZM-29.2087 589.504C-28.1808 591.705 -28.4745 593.245 -30.4569 593.978C-31.0443 591.998 -30.7506 590.458 -29.2087 589.504ZM-32.0723 595.225C-31.338 595.152 -31.2646 596.325 -30.4569 596.032C-30.0898 597.939 -31.2646 599.039 -32.5128 600.139C-33.6142 597.865 -31.7786 597.132 -32.0723 595.225ZM-36.5511 600.139C-34.7155 600.139 -37.5056 601.972 -36.9917 602.999C-39.4881 602.706 -35.8903 601.239 -36.5511 600.139ZM-33.3205 601.752C-32.8799 603.366 -33.3939 604.392 -34.9358 604.979C-34.275 604.026 -35.0826 602.266 -33.3205 601.752Z" fill="#BFD3B6" fill-opacity="0.6"/>
</svg>
