<svg width="52" height="50" fill="none" xmlns="http://www.w3.org/2000/svg"><path fill-rule="evenodd" clip-rule="evenodd" d="M28.274 5.093V.105L22.831.044 20.79 3.43l2.495 2.496 4.99-.833zm-5.82 5.822L15.8 4.26l-3.326 3.327 5.673 5.053 4.306-1.726zm6.994 3.89-3.322-2.415.604-2.717 5.702-.42 7.485 5.82-1.663 4.99-2.495 1.663-2.495-1.664v-2.495l-2.495-3.326-1.321.565zm19.616 32.7h-1.663a.832.832 0 0 1 0-1.663h1.663a.832.832 0 1 1 0 1.663zm0-11.642h1.664a.832.832 0 0 0 0-1.663h-1.664a.832.832 0 0 0 0 1.663zm-9.979 0 4.99-3.327V29.21l-4.99-4.99-3.326 3.327-3.327-3.327-3.326 2.495 3.326 4.158-2.494 4.99-2.495-4.158-5.821-2.495 3.326-6.653 2.495-3.326-5.821-3.327-3.327 3.327L7.485 8.42.831 15.904l1.954 8.052L0 26.715 2.495 34.2l19.958 9.979 2.495-4.158 4.99 3.326L33.264 50l4.158-6.653h6.653l.831-4.99-5.82-2.494z" fill="#0E8784"/></svg>