<svg width="111" height="113" viewBox="0 0 111 113" fill="none" xmlns="http://www.w3.org/2000/svg">
<path fill-rule="evenodd" clip-rule="evenodd" d="M38.2125 88.0488C18.0499 70.024 9.80103 46.5314 21.4764 24.5881C35.4706 -1.71337 40.2625 37.7259 61.752 30.7427C83.2415 23.7594 111.874 41.1173 97.2288 72.0458C83.5195 100.999 58.375 106.074 38.2125 88.0488Z" fill="#5FD788"/>
<path d="M96.9093 56.8629H93.2953V52.9414H96.9093V49.0198H93.2953V43.1374C93.2953 42.6175 93.1049 42.1185 92.7661 41.7509C92.4273 41.3833 91.9674 41.1767 91.4883 41.1767H87.8743V35.2943C87.8718 32.6788 87.1813 30.1183 85.8841 27.9142C84.587 25.71 82.7373 23.9523 80.5519 22.8493L80.727 22.3416C83.0833 15.5226 83.0092 7.99474 80.5173 1.23263C80.3083 0.666286 79.8687 0.237358 79.3274 0.0727869C78.7861 -0.0917797 78.2045 0.026393 77.7551 0.392293L73.4183 3.9217C70.3109 6.45054 66.8487 8.41917 63.1636 9.7525C59.4786 11.0865 55.6195 11.7658 51.7343 11.7649C47.0103 11.7641 42.4403 13.59 38.8449 16.9145C35.2487 20.2391 32.8624 24.8452 32.113 29.9065C29.7436 30.6199 27.6165 32.0643 25.9902 34.0654C24.3647 36.0664 23.3097 38.5367 22.9539 41.1766H19.2083C18.2104 41.1766 17.4013 42.0546 17.4013 43.1374V49.0198H13.7873V52.9413H17.4013V56.8629H13.7873C12.7894 56.8629 11.9803 57.7409 11.9803 58.8237V92.1569C11.9827 94.2368 12.745 96.23 14.0996 97.7005C15.4548 99.1702 17.2916 99.9974 19.2083 100H91.4883C93.405 99.9974 95.2419 99.1702 96.5971 97.7005C97.9515 96.2299 98.7139 94.2367 98.7163 92.1569V58.8237C98.7163 58.3037 98.526 57.8048 98.1871 57.4371C97.8483 57.0695 97.3884 56.8629 96.9093 56.8629ZM35.4712 33.3335H58.9622V29.412H35.8781C36.6977 25.5133 38.7121 22.0318 41.5927 19.5388C44.4734 17.0449 48.0496 15.6865 51.7345 15.6865C56.0074 15.6874 60.2532 14.9398 64.3068 13.4728C68.3605 12.0065 72.1688 9.84095 75.5869 7.0591L77.936 5.14735C79.3017 10.3529 79.0944 15.8967 77.343 20.9649L77.0825 21.7186C76.467 21.6197 75.8474 21.5689 75.2255 21.5689H66.1905V25.4905H75.2255C77.6206 25.4931 79.9173 26.5269 81.6113 28.3651C83.3053 30.2033 84.258 32.6954 84.2605 35.2944V41.1767H26.6182C27.0376 38.9638 28.1469 36.9759 29.7595 35.5465C31.3729 34.1179 33.3892 33.3362 35.4712 33.3335ZM21.0152 52.9414H37.2782V49.0198H21.0152V45.0982H89.6813V49.0198H84.2603V52.9414H89.6813V56.8629H21.0152V52.9414ZM95.1023 92.157C95.1014 93.1969 94.7199 94.193 94.0423 94.9283C93.3646 95.6635 92.4466 96.0776 91.4883 96.0785H19.2083C18.2499 96.0776 17.3319 95.6636 16.6543 94.9283C15.9767 94.193 15.5951 93.1968 15.5943 92.157V60.7845H95.1023L95.1023 92.157Z" fill="#424B25"/>
<path d="M40.8923 49.0198H80.6463V52.9413H40.8923V49.0198Z" fill="#424B25"/>
<path d="M55.3483 88.2354C57.7442 88.2354 60.0423 87.2025 61.7374 85.3644C63.4314 83.5253 64.3833 81.0314 64.3833 78.4315C64.3833 75.8316 63.4313 73.338 61.7374 71.4987C60.0425 69.6604 57.7442 68.6276 55.3483 68.6276C52.9523 68.6276 50.6542 69.6605 48.9591 71.4987C47.2651 73.3378 46.3132 75.8316 46.3132 78.4315C46.3157 81.0305 47.2684 83.5226 48.9624 85.3608C50.6565 87.199 52.9531 88.2327 55.3483 88.2354ZM55.3483 72.5492C56.7858 72.5492 58.1653 73.1689 59.1816 74.2719C60.1978 75.3748 60.7692 76.8718 60.7692 78.4314C60.7692 79.9911 60.198 81.4882 59.1816 82.591C58.1651 83.6937 56.7856 84.3136 55.3483 84.3136C53.9109 84.3136 52.5312 83.6939 51.5149 82.591C50.4987 81.488 49.9274 79.9911 49.9274 78.4314C49.929 76.8716 50.5009 75.3764 51.5173 74.2743C52.533 73.1714 53.9109 72.5508 55.3484 72.549L55.3483 72.5492Z" fill="#424B25"/>
</svg>
