<svg width="103" height="101" viewBox="0 0 103 101" fill="none" xmlns="http://www.w3.org/2000/svg">
<path fill-rule="evenodd" clip-rule="evenodd" d="M42.4195 84.0225C18.6447 72.2745 5.07339 51.899 11.117 27.4245C18.3609 -1.91099 32.3967 34.8386 51.4883 22.0581C70.5798 9.27765 102.376 18.0028 95.6078 51.9904C89.2716 83.8069 66.1943 95.7706 42.4195 84.0225Z" fill="#5FD788"/>
<path d="M35.8258 51.1709H66.6501V67.8946H69.7325V41.1366C69.7304 39.3627 69.0803 37.6627 67.925 36.4085C66.7691 35.1549 65.2024 34.4494 63.5677 34.4471H62.0264V31.1024H63.5677C63.9764 31.1024 64.3685 30.9262 64.6575 30.6126C64.9465 30.299 65.1089 29.8735 65.1089 29.43V19.3958C65.1089 18.9523 64.9465 18.5267 64.6575 18.2132C64.3685 17.8996 63.9764 17.7234 63.5677 17.7234H57.4028V7.68915C57.4028 5.29928 56.2276 3.0908 54.3204 1.89567C52.4132 0.701118 50.0628 0.701118 48.1555 1.89567C46.2483 3.09097 45.0731 5.29947 45.0731 7.68915V17.7234H38.9083C38.0572 17.7234 37.367 18.4722 37.367 19.3958V29.43C37.367 29.8735 37.5294 30.299 37.8184 30.6126C38.1074 30.9262 38.4996 31.1024 38.9083 31.1024H40.4495V34.4471H38.9083C37.2735 34.4494 35.7068 35.1549 34.5509 36.4085C33.3957 37.6628 32.7455 39.3628 32.7434 41.1366V82.9459H35.8258V51.1709ZM48.1555 7.68915C48.1555 6.49385 48.7431 5.38969 49.6967 4.79241C50.6504 4.19514 51.8256 4.19514 52.7792 4.79241C53.7328 5.38969 54.3204 6.49389 54.3204 7.68915V17.7234H48.1555V7.68915ZM40.4495 21.0681H62.0264V27.7576H40.4495V21.0681ZM43.5319 31.1024H58.944V34.4471H43.5319V31.1024ZM38.9083 37.7919H63.5677C64.3851 37.7926 65.168 38.1458 65.746 38.7729C66.3239 39.4 66.6494 40.2497 66.6501 41.1366V47.8261H35.8258V41.1366C35.8265 40.2496 36.1519 39.4 36.7299 38.7729C37.3078 38.1458 38.0909 37.7926 38.9083 37.7919Z" fill="#424B25"/>
<path d="M93.6962 81.1262C93.4052 79.3807 92.488 77.8323 91.1458 76.8199C89.8041 75.8082 88.1466 75.4148 86.5373 75.7269L77.4365 77.5038L76.3453 70.9203H76.3446C76.2724 70.4836 76.0433 70.0961 75.7075 69.843C75.3717 69.5899 74.9575 69.4914 74.555 69.5697L65.4536 71.3467C65.0518 71.425 64.694 71.6744 64.4607 72.0387C64.2275 72.4023 64.1374 72.8525 64.2096 73.2893L64.4821 74.9348L59.9314 75.8232H59.932C59.094 75.9867 58.5374 76.8565 58.6881 77.7651L59.2426 81.1099L18.4824 90.599C16.9481 90.9559 15.6772 92.1153 15.0889 93.6943C14.5013 95.2734 14.674 97.0652 15.5492 98.4784C16.4244 99.8916 17.8885 100.741 19.4579 100.747C19.6911 100.747 19.9244 100.729 20.1556 100.692L61.409 94.1698L61.9635 97.5161H61.9628C62.0358 97.9521 62.2649 98.3396 62.6007 98.5927C62.9364 98.8458 63.3506 98.9443 63.7531 98.866L68.3039 97.9775L68.5763 99.623C68.6486 100.06 68.8777 100.447 69.2135 100.7C69.5492 100.953 69.9641 101.052 70.3666 100.973L79.4673 99.1959C80.3054 99.0324 80.862 98.1634 80.7113 97.2541L79.6201 90.6707L88.7215 88.8938C90.3302 88.5795 91.7585 87.5842 92.6915 86.1276C93.6245 84.671 93.9864 82.8717 93.6967 81.1254L93.6962 81.1262ZM19.711 97.3826C18.8324 97.5215 18.0102 96.8802 17.8533 95.932C17.6957 94.9838 18.2599 94.0715 19.1282 93.8699L59.7898 84.4047L60.8631 90.8768L19.711 97.3826ZM64.725 95.2779L61.9962 78.8185L65.0299 78.2264L67.7586 94.6858L64.725 95.2779ZM71.3384 97.3855L67.5178 74.343L73.5863 73.159L77.4064 96.2014L71.3384 97.3855ZM90.1606 84.2192C89.6962 84.9494 88.9813 85.4474 88.1762 85.6019L79.0748 87.3788L77.9836 80.7954L87.0843 79.0185H87.085C87.8893 78.8617 88.7184 79.0581 89.3892 79.5643C90.0601 80.0705 90.519 80.8454 90.6635 81.7189C90.808 82.5916 90.627 83.4913 90.1605 84.2192L90.1606 84.2192Z" fill="#424B25"/>
<path d="M51.238 56.1878C50.7812 56.1878 50.3477 56.408 50.0553 56.7881C48.9654 58.2044 43.532 65.4731 43.532 69.5667C43.532 72.5539 45.001 75.3147 47.385 76.808C49.7691 78.3019 52.7071 78.3019 55.0911 76.808C57.4751 75.3148 58.9441 72.5539 58.9441 69.5667C58.9441 65.4731 53.5113 58.2043 52.4208 56.7881C52.1284 56.408 51.695 56.1878 51.2381 56.1878H51.238ZM55.8617 69.5668C55.8617 71.3594 54.9803 73.0153 53.5499 73.9119C52.1194 74.8078 50.3566 74.8078 48.9262 73.9119C47.4958 73.0152 46.6144 71.3594 46.6144 69.5668C46.6144 67.772 49.0335 63.6642 51.238 60.5411C53.4426 63.6642 55.8617 67.7719 55.8617 69.5668Z" fill="#424B25"/>
<path d="M60.4855 54.5154H63.5679V57.8601H60.4855V54.5154Z" fill="#424B25"/>
</svg>
