<svg width="111" height="117" viewBox="0 0 111 117" fill="none" xmlns="http://www.w3.org/2000/svg">
<path fill-rule="evenodd" clip-rule="evenodd" d="M38.2125 92.0488C18.0499 74.024 9.80102 50.5314 21.4764 28.5881C35.4706 2.28663 40.2625 41.7259 61.752 34.7427C83.2415 27.7594 111.874 45.1173 97.2288 76.0458C83.5195 104.999 58.375 110.074 38.2125 92.0488Z" fill="#5FD788"/>
<path d="M83.2337 42.8572H39.3493C38.1855 42.8572 37.0688 42.3555 36.2461 41.4626C35.4234 40.5698 34.9609 39.3579 34.9609 38.0954V28.5716C34.9609 27.695 35.6159 26.9843 36.4237 26.9843H86.1594C86.5473 26.9843 86.9195 27.1515 87.1938 27.4491C87.4681 27.7467 87.6222 28.1506 87.6222 28.5716V38.0954C87.6222 39.3581 87.1598 40.5699 86.337 41.4626C85.5142 42.3553 84.3974 42.8572 83.2338 42.8572H83.2337ZM37.8864 30.1588V38.0953C37.8864 38.5162 38.0406 38.9201 38.3148 39.2177C38.5891 39.5153 38.9614 39.6826 39.3493 39.6826H83.2337C83.6216 39.6826 83.9938 39.5153 84.2681 39.2177C84.5423 38.9201 84.6965 38.5162 84.6965 38.0953V30.1588H37.8864Z" fill="#424B25"/>
<path d="M83.2337 100H39.3493C38.8275 99.9986 38.3462 99.6967 38.0857 99.2064C37.6599 98.4127 27.6469 79.6436 27.6469 66.6658C27.6371 62.8697 28.5866 59.1431 30.3916 55.8912C32.1973 52.6393 34.7892 49.9862 37.8866 48.2212V41.269H40.8122V49.2055C40.8122 49.8404 40.4635 50.4144 39.926 50.6645C37.1323 52.0995 34.7709 54.3643 33.1155 57.1966C31.46 60.0289 30.5784 63.3119 30.5725 66.6658C30.5725 77.3724 38.3169 93.142 40.2023 96.8245H82.3815C84.2668 93.1418 92.0113 77.3615 92.0113 66.6658C92.0048 63.3105 91.1219 60.026 89.4652 57.1937C87.8078 54.3614 85.4444 52.0965 82.6493 50.6623C82.1158 50.4101 81.771 49.8375 81.7717 49.2054V41.2689H84.6973V48.2211C87.7946 49.9863 90.3865 52.6393 92.1922 55.8911C93.9973 59.143 94.9468 62.8696 94.937 66.6657C94.937 79.6433 84.9238 98.4118 84.4982 99.2063C84.2376 99.6967 83.7563 99.9986 83.2345 100L83.2337 100Z" fill="#424B25"/>
<path d="M78.8452 92.0635H43.7377C43.1225 92.0635 42.5733 91.6461 42.3624 91.019C42.1286 90.2955 36.4237 73.2015 36.4237 65.0797C36.4394 62.4535 37.2929 59.9138 38.8399 57.8937C40.387 55.8736 42.5316 54.498 44.908 54.0005C45.004 53.9786 45.102 53.968 45.2006 53.9687H77.3825C77.4811 53.968 77.579 53.9786 77.675 54.0005C80.0515 54.498 82.196 55.8734 83.7431 57.8937C85.2902 59.914 86.1436 62.4537 86.1594 65.0797C86.1594 73.2018 80.4544 90.2951 80.2207 91.019C80.0097 91.6461 79.4605 92.0635 78.8454 92.0635H78.8452ZM44.7725 88.8889H77.8104C79.0499 85.0396 83.2333 71.559 83.2333 65.0793C83.2196 63.2099 82.6156 61.4022 81.5211 59.9575C80.4272 58.5134 78.9103 57.5198 77.2228 57.1428H45.3635C43.6807 57.5304 42.1689 58.5268 41.0757 59.9688C39.9832 61.4108 39.3738 63.2128 39.3484 65.0793C39.3484 71.559 43.5317 85.0394 44.7714 88.8889H44.7725Z" fill="#424B25"/>
<path d="M70.0683 92.0635H52.5146C51.7068 92.0635 51.0518 91.3528 51.0518 90.4762V80.9524C51.0518 80.0759 51.7068 79.3651 52.5146 79.3651H70.0683C70.4562 79.3651 70.8285 79.5323 71.1027 79.83C71.377 80.1276 71.5311 80.5315 71.5311 80.9524V90.4762C71.5311 90.8971 71.377 91.3011 71.1027 91.5987C70.8285 91.8963 70.4562 92.0635 70.0683 92.0635ZM53.9774 88.8889H68.6055V82.5397H53.9774V88.8889Z" fill="#424B25"/>
<path d="M61.2914 76.1905C59.7398 76.1905 58.2515 75.5216 57.1538 74.3311C56.0567 73.1399 55.4402 71.5249 55.4402 69.8413C55.4402 66.7603 59.4073 61.8063 60.2028 60.8446C60.4875 60.5229 60.8806 60.3408 61.2914 60.3408C61.7021 60.3408 62.0953 60.5229 62.38 60.8446C63.1754 61.8062 67.1426 66.7601 67.1426 69.8413C67.1426 71.5249 66.5261 73.14 65.429 74.3311C64.3312 75.5216 62.8429 76.1905 61.2913 76.1905H61.2914ZM61.2914 64.3637C59.7392 66.4684 58.3658 68.8301 58.3658 69.8413C58.3658 70.9758 58.9235 72.0238 59.8286 72.5907C60.7337 73.1576 61.8491 73.1576 62.7543 72.5907C63.6594 72.0238 64.2171 70.9757 64.2171 69.8413C64.2171 68.857 62.845 66.4775 61.2914 64.3637Z" fill="#424B25"/>
<path d="M59.8287 74.6031H62.7543V80.9524H59.8287V74.6031Z" fill="#424B25"/>
<path d="M53.9774 19.0476H51.0518C51.0518 18.1555 50.7344 17.7778 50.0173 16.9956C48.821 15.9468 48.1262 14.3673 48.1262 12.6984C48.1262 11.0295 48.8211 9.45016 50.0173 8.40127C50.7344 7.61896 51.0518 7.24127 51.0518 6.34921C51.0518 5.45714 50.7344 5.07936 50.0173 4.29714C48.8353 3.23634 48.1431 1.66458 48.1262 0H51.0518C51.0518 0.892154 51.3692 1.26984 52.0863 2.05206C53.2683 3.11287 53.9605 4.68463 53.9774 6.34921C53.9604 8.01375 53.2682 9.58549 52.0863 10.6463C51.3692 11.4287 51.0518 11.8063 51.0518 12.6984C51.0518 13.5905 51.3692 13.9683 52.0863 14.7505C53.2683 15.8113 53.9605 17.383 53.9774 19.0476Z" fill="#424B25"/>
<path d="M64.217 19.0476H61.2914C61.2914 18.1555 60.974 17.7778 60.257 16.9956C59.0606 15.9468 58.3659 14.3673 58.3659 12.6984C58.3659 11.0295 59.0607 9.45016 60.257 8.40127C60.974 7.61896 61.2914 7.24127 61.2914 6.34921C61.2914 5.45714 60.974 5.07936 60.257 4.29714C59.075 3.23634 58.3828 1.66458 58.3659 0H61.2915C61.2915 0.892154 61.6089 1.26984 62.3259 2.05206C63.5079 3.11287 64.2002 4.68463 64.217 6.34921C64.2001 8.01375 63.5078 9.58549 62.3259 10.6463C61.6089 11.4287 61.2915 11.8063 61.2915 12.6984C61.2915 13.5905 61.6089 13.9683 62.3259 14.7505C63.5079 15.8113 64.2002 17.383 64.217 19.0476Z" fill="#424B25"/>
<path d="M74.4568 19.0476H71.5311C71.5311 18.1555 71.2138 17.7778 70.4967 16.9956C69.3004 15.9468 68.6056 14.3673 68.6056 12.6984C68.6056 11.0295 69.3004 9.45016 70.4967 8.40127C71.2138 7.61896 71.5311 7.24127 71.5311 6.34921C71.5311 5.45714 71.2138 5.07936 70.4967 4.29714C69.3147 3.23634 68.6225 1.66458 68.6056 0H71.5312C71.5312 0.892154 71.8486 1.26984 72.5656 2.05206C73.7476 3.11287 74.4399 4.68463 74.4568 6.34921C74.4398 8.01375 73.7476 9.58549 72.5656 10.6463C71.8486 11.4287 71.5312 11.8063 71.5312 12.6984C71.5312 13.5905 71.8486 13.9683 72.5656 14.7505C73.7476 15.8113 74.4399 17.383 74.4568 19.0476Z" fill="#424B25"/>
<path d="M36.4236 33.3333H81.7708V36.5079H36.4236V33.3333Z" fill="#424B25"/>
</svg>
